<svg aria-hidden="true" style="width:0;height:0;position:absolute;overflow:hidden" xmlns="http://www.w3.org/2000/svg"><defs><symbol id="icon-close" viewBox="0 0 32 32"><path fill="#fcfcfc" style="fill:var(--color1,#fcfcfc)" d="M23.88 6.7 16 14.6 8.12 6.71a.998.998 0 0 0-1.631.776c0 .232.079.446.212.616L6.699 8.1l7.89 7.9-7.89 7.88a1 1 0 1 0 1.408 1.412l.001-.001 7.89-7.88 7.88 7.89a1 1 0 0 0 1.408-1.412l.001.001-7.88-7.89 7.88-7.88a1 1 0 1 0-1.399-1.421l-.001.001z"/></symbol><symbol id="icon-menu" viewBox="0 0 32 32"><path fill="#fff" style="fill:var(--color4,#fff)" d="M26.73 14.67H5.27c-.7 0-1.27.56-1.27 1.26v.14c0 .7.57 1.26 1.27 1.26h21.46c.7 0 1.27-.56 1.27-1.26v-.14c0-.7-.57-1.26-1.27-1.26zm0 6.66H5.27c-.7 0-1.27.57-1.27 1.27v.13c0 .7.57 1.27 1.27 1.27h21.46c.7 0 1.27-.57 1.27-1.27v-.13c0-.7-.57-1.27-1.27-1.27zm0-13.33H5.27C4.57 8 4 8.57 4 9.27v.13c0 .7.57 1.27 1.27 1.27h21.46c.7 0 1.27-.57 1.27-1.27v-.13c0-.7-.57-1.27-1.27-1.27z"/></symbol><symbol id="icon-arrow" viewBox="0 0 32 32"><path d="M10.586 3.272a2 2 0 0 0 0 2.828l9.9 9.9-9.9 9.9a1.998 1.998 0 0 0 .025 2.804 2.001 2.001 0 0 0 2.804.025l11.314-11.314a2 2 0 0 0 0-2.828L13.415 3.273a2 2 0 0 0-2.828 0z"/></symbol><symbol id="icon-arrow-white" viewBox="0 0 82 32"><path d="M81.414 17.414a2 2 0 0 0 0-2.828L68.686 1.858a2 2 0 1 0-2.828 2.828L77.172 16 65.858 27.314a2 2 0 1 0 2.828 2.828l12.728-12.728zM0 18h80v-4H0v4z"/></symbol><symbol id="icon-strilka" viewBox="0 0 82 32"><path d="M81.4 17.4c.354-.36.572-.855.572-1.4s-.218-1.04-.572-1.4L68.7 1.84a2 2 0 1 0-2.823 2.818l.003.002L77.18 16 65.86 27.32a2 2 0 0 0 2.823 2.818l-.003.002 12.74-12.72zM0 18h80v-4H0v4z"/></symbol><symbol id="weight" viewBox="0 0 32 32"><path fill="#f8d24e" style="fill:var(--color1,#f8d24e)" d="M16 0c8.837 0 16 7.163 16 16s-7.163 16-16 16S0 24.837 0 16 7.163 0 16 0z"/><path style="fill:var(--color2,#000)" d="M14.688 4.874c-2.861.424-5.218 2.013-6.085 4.093-.276.657-.351 1.061-.351 1.853.005.585.026.802.117 1.118.186.621.319.936.595 1.382l.256.413-.288.352c-2.271 2.826-2.521 6.8-.627 9.931.707 1.175 1.862 2.329 2.989 3.002l.335.196 9.175-.077.218-.119c.761-.429 1.835-1.387 2.436-2.163a9.003 9.003 0 0 0 1.737-3.993l.007-.053c.085-.533.085-2.112-.005-2.614-.271-1.547-.851-2.872-1.766-4.047a4.693 4.693 0 0 1-.314-.424c0-.01.096-.171.207-.352.255-.406.467-.875.612-1.373l.01-.04c.143-.518.143-1.811 0-2.329-.511-1.837-2.042-3.369-4.207-4.212-.607-.238-1.644-.492-2.314-.574-.622-.072-2.159-.058-2.739.031zm3.238.843c2.84.554 4.92 2.292 5.303 4.435.085.481.032 1.299-.111 1.754a5.58 5.58 0 0 1-.723 1.412c-.128.182-.234.388-.234.456s.111.243.271.419c1.329 1.475 2.031 3.322 2.031 5.32-.005 2.272-.877 4.264-2.558 5.827a8.892 8.892 0 0 1-.915.75l-.399.269-8.792.036-.34-.218c-1.234-.801-2.346-2.126-2.963-3.534a7.945 7.945 0 0 1-.223-5.697c.335-.963.782-1.749 1.462-2.577.277-.332.404-.528.404-.621 0-.078-.138-.332-.319-.595-.638-.927-.899-1.956-.744-2.929.16-.983.606-1.791 1.431-2.592 1.074-1.041 2.574-1.73 4.334-1.988.728-.109 2.34-.067 3.085.072z"/><path style="fill:var(--color2,#000)" d="M14.927 6.628c-2.18.357-3.888 1.568-4.447 3.157-.128.357-.148.497-.148 1.009s.021.652.148 1.009c.08.228.229.544.33.704.277.445.399.461.947.129a8.462 8.462 0 0 1 2.683-1.062l.056-.01c.659-.134 1.925-.186 2.643-.103a8.737 8.737 0 0 1 3.313 1.107c.277.16.559.294.628.294.404 0 .92-1.164.92-2.069 0-2.013-1.926-3.736-4.654-4.166-.58-.093-1.862-.093-2.42 0zm2.632.828c.915.196 1.756.57 2.388 1.061.851.657 1.308 1.573 1.234 2.458-.027.352-.16.828-.239.88-.021.01-.319-.114-.659-.279a10.17 10.17 0 0 0-2.254-.779l-.07-.013c-.495-.103-.702-.119-1.809-.114-1.09 0-1.318.016-1.792.114a9.606 9.606 0 0 0-2.244.766c-.793.378-.75.383-.894-.083-.186-.605-.069-1.407.292-2.013.192-.321.718-.854 1.101-1.117.73-.502 1.368-.73 2.739-.979.282-.051 1.846.021 2.208.099zm-.866 6.675c-.149.187-.149.363.005.513.101.099.202.124.57.15a4.673 4.673 0 0 1 2.027.623l-.022-.012c.436.259 1.101.885 1.399 1.335.442.646.744 1.573.744 2.257 0 .238.022.31.133.413.17.171.394.171.559 0 .117-.119.122-.15.09-.657-.149-2.505-2.292-4.595-4.856-4.736l-.532-.031-.116.145z"/></symbol><symbol id="ice-crema" viewBox="0 0 31 32"><path fill="#f8d24e" style="fill:var(--color1,#f8d24e)" d="M15.686 0c8.663 0 15.686 7.023 15.686 15.686v.008c0 8.663-7.023 15.686-15.686 15.686S0 24.357 0 15.694v-.008C0 7.023 7.023 0 15.686 0z"/><path style="fill:var(--color2,#000)" d="M15.763 4.467c.056.152.17.884.17 1.111v.008c0 .577-.225 1.102-.591 1.492l.001-.001c-.317.34-.634.529-1.394.836-.846.345-1.196.553-1.592.945-.402.402-.638.841-.723 1.357-.095.562 0 .959.288 1.186l.146.113-.232.147c-.467.307-1.318 1.03-1.464 1.252-.284.425-.255.822.066.983l.151.075-.17.161c-.255.241-.307.407-.27.841.024.289.014.445-.051.681-.08.307-.08.312.023.53.104.213.397.482.662.595.127.056.132.075.161.51.014.251.038 1.049.056 1.777.014.728.048 1.394.075 1.474a.567.567 0 0 0 .194.255c.274.189.463.393.585.629.137.27.289.931.747 3.218l.322 1.606.198.189c.378.373 1.101.543 2.292.543 1.195 0 1.909-.166 2.287-.539l.203-.193.292-1.489c.647-3.256.704-3.435 1.21-3.837.156-.128.307-.284.335-.355.033-.08.067-.7.09-1.635.019-.831.048-1.654.067-1.829l.028-.316.307-.232c.387-.297.538-.567.538-.983-.004-.491-.326-1.03-.912-1.512l-.279-.226.137-.194c.572-.789.213-1.88-.851-2.608l-.321-.222.118-.123c.525-.562.61-2.24.17-3.407-.264-.695-.87-1.451-1.611-2.008-.363-.274-1.365-.879-1.454-.879-.019 0-.019.033-.004.075zm1.36 1.651c.251.246.553.581.671.751.704.983.883 2.217.458 3.124-.17.368-.681.916-1.153 1.242-.723.501-2.349 1.343-3.482 1.805-1.824.742-2.883.884-3.005.397-.048-.184.09-.331.671-.718.524-.359 2.877-2.108 2.92-2.178.014-.019-.227.09-.53.241-1.025.52-1.512.42-1.488-.302.014-.525.392-1.119.916-1.46.133-.085.544-.274.922-.425 1.242-.501 1.621-.756 2.041-1.384.251-.373.525-1.064.543-1.357.005-.104.024-.184.038-.184s.227.203.477.449zm1.29 5.368c.345.193.704.525.86.784.275.467.133.936-.458 1.531-.642.653-1.739 1.276-2.944 1.673-1.111.364-2.174.534-3.696.586l-.945.033.615.038c.794.052 2.329.005 2.925-.09 1.583-.251 2.93-.752 3.894-1.441.218-.156.444-.284.506-.284.156 0 .836.653.973.926.076.156.095.27.08.42-.071.629-.836.964-2.684 1.186-2.259.27-5.212.005-6.474-.576-.596-.274-.695-.43-.543-.846.047-.132.056-.289.038-.511-.024-.293-.019-.331.085-.439.237-.255.634-.402 2.089-.771.51-.132 1.205-.34 1.535-.463.803-.293 2.311-1.054 3.01-1.522.657-.435.752-.454 1.134-.236zm-6.276 5.784c.993.289 1.872.373 3.507.34 1.229-.023 1.985-.099 3.076-.293.223-.038.416-.071.44-.071.052 0 .038 1.815-.019 2.292-.061.506-.199.898-.345.993-.151.099-.907.203-1.919.26-2.074.113-4.206 0-4.867-.265-.359-.146-.397-.336-.402-2.089 0-1.167.009-1.328.071-1.304.038.014.245.075.458.137zm1.12 4.017c.341.043.709.085.822.099l.204.024-.18.198c-.232.25-.586.751-.713 1.006-.146.293-.194.312-.411.194l-.184-.104-.104-.642a17.11 17.11 0 0 0-.152-.859l.02.117c-.043-.122-.085-.122.699-.033zm5.038-.052c0 .009-.024.132-.048.27-.028.141-.146.912-.264 1.715-.241 1.678-.402 2.466-.548 2.731-.203.355-.69.562-1.479.629-.307.024-1.234-.038-1.286-.085-.038-.042.775-1.049.903-1.115.118-.067.151-.056.552.151.468.247.705.284.705.128s-.123-.307-.425-.514c-.279-.199-.378-.312-.378-.445 0-.038.137-.25.302-.472s.406-.577.529-.789l.232-.383.212.029c.43.061.543.056.53-.038-.009-.048-.09-.184-.18-.298-.09-.118-.161-.237-.161-.26 0-.09.439-.917.582-1.092.123-.151.222-.227.222-.161zm-2.953.378c.236.156 1.124.926 1.181 1.021.024.043-.888 1.47-1.068 1.673-.019.024-.118-.023-.217-.099-.22-.166-.488-.352-.762-.531l-.06-.037-.638-.42.383-.648c.68-1.139.666-1.12.813-1.12.075 0 .241.071.369.161zm1.791.17c-.166.203-.302.331-.359.331-.123 0-.322-.109-.657-.355l-.279-.203.558-.033c.246-.009.47-.024.692-.046l-.046.004c.378-.061.378-.056.09.303zm-3.573 2.273c.435.17 1.172.572 1.385.752.151.122.151.132.09.283-.1.199-.197.364-.304.523l.011-.017a7.284 7.284 0 0 0-.295.482l-.022.043c-.151.293-.198.317-.51.232-.336-.1-.514-.27-.609-.577-.128-.43-.331-1.644-.307-1.833.009-.071.208-.028.562.114z"/></symbol><symbol id="cow" viewBox="0 0 32 32"><path fill="#f8d24e" style="fill:var(--color1,#f8d24e)" d="M16 0c8.837 0 16 7.163 16 16s-7.163 16-16 16S0 24.837 0 16 7.163 0 16 0z"/><path fill="#131313" style="fill:var(--color3,#131313)" d="M8.922 4.618c-.188.163-.725 1.283-.918 1.894-.229.758-.307 1.326-.276 2.111.042 1.12.323 1.97.943 2.858.162.232.292.433.292.449 0 .011-.099.021-.224.021-.538 0-1.544.179-2.315.412-1.225.368-1.944 1.012-1.944 1.732 0 .255.229.687.474.909.474.428 1.512.834 2.627 1.028.386.07 1.533.189 1.788.195.047 0 .063.249.063 1.066 0 .703.026 1.25.078 1.585.188 1.201.771 2.474 1.542 3.372l.266.308-.177.287c-.26.406-.36.714-.39 1.174-.079 1.104.609 2.083 1.939 2.771 2.532 1.315 6.468.8 7.944-1.039.719-.899.803-1.926.234-2.858l-.177-.287.318-.384a6.655 6.655 0 0 0 1.272-2.332c.244-.769.339-1.51.339-2.685 0-.536.015-.979.042-.979.24-.006 1.392-.13 1.757-.195 1.121-.195 2.138-.595 2.627-1.028.245-.222.474-.655.474-.909 0-.801-.813-1.45-2.325-1.84-.495-.13-1.428-.287-1.882-.314l-.214-.017.235-.324c.292-.396.657-1.164.797-1.667.396-1.455.151-3.149-.699-4.768-.354-.671-.599-.828-.886-.563-.109.104-.156.244-.26.753-.323 1.619-.923 2.901-1.798 3.848l-.386.422h-8.246l-.344-.374c-.854-.942-1.475-2.273-1.798-3.897-.104-.509-.151-.649-.26-.752-.172-.157-.339-.152-.531.016zm.666 3.21a8.607 8.607 0 0 0 1.027 1.699l.323.417-.339.255a3.401 3.401 0 0 0-.845.985l-.099.179-.25-.341c-.855-1.18-1.069-2.625-.615-4.124.219-.725.214-.719.412-.092.094.303.271.763.386 1.023zm13.568-1.142c.189.524.298 1.13.298 1.76v.067-.003c0 .984-.26 1.818-.808 2.565l-.245.335-.182-.308a3.27 3.27 0 0 0-.903-.995l-.009-.007a1.26 1.26 0 0 1-.25-.195c0-.016.099-.141.224-.276.579-.644 1.199-1.802 1.507-2.798.093-.308.188-.563.203-.563s.094.189.166.417zm-2.663 3.956c.579.243 1.131.941 1.22 1.532.047.325.156.531.297.563.063.01.495.049.959.081 1.647.109 2.945.461 3.498.942.255.227.229.416-.078.65-.615.465-1.944.817-3.3.877-.897.038-1.084.064-1.204.189-.089.092-.099.189-.099 1.169 0 1.326-.068 2.089-.235 2.706-.234.838-.698 1.732-1.24 2.365l-.224.26-.464-.276a5.646 5.646 0 0 0-1.681-.69l-.039-.008c-1.976-.472-4.16-.184-5.629.741l-.339.216-.214-.255a7.81 7.81 0 0 1-.933-1.483c-.401-.931-.521-1.688-.521-3.355 0-1.619.083-1.5-1.116-1.564-1.533-.081-2.701-.357-3.436-.823-.542-.346-.453-.655.303-1.018.724-.351 1.72-.563 3.101-.649 1.074-.07 1.1-.086 1.199-.606.146-.785.724-1.434 1.455-1.64.182-.054 1.204-.065 4.332-.06l4.092.01.297.125zm-2.929 11.202c1.277.314 2.231.899 2.643 1.624.099.168.141.341.161.606.021.33.006.412-.12.682-.579 1.229-2.705 2.04-4.868 1.856-2.601-.216-4.311-1.667-3.638-3.09.365-.769 1.6-1.505 2.903-1.722.214-.032.428-.07.469-.081s.511-.011 1.043 0c.724.016 1.073.049 1.407.124z"/><path fill="#131313" style="fill:var(--color3,#131313)" d="M12.392 13.351c-.323.109-.542.25-.834.541-.255.243-.276.53-.062.703.198.162.385.141.625-.07.302-.265.537-.374.829-.374.292-.005.516.098.829.374.24.211.428.232.625.07.104-.087.136-.157.136-.32 0-.167-.036-.243-.219-.427-.516-.519-1.283-.719-1.929-.498zm6.078-.006c-.333.125-.761.406-.932.617-.167.206-.173.438 0 .612.172.184.38.173.63-.033.615-.509 1.074-.525 1.642-.054.146.125.312.222.365.222.255 0 .464-.227.464-.498 0-.173-.433-.573-.824-.763-.433-.211-.948-.249-1.345-.102zm-5.321 10.016c-.151.146-.204.356-.125.525.058.134.146.189.506.287.162.043.23.097.287.232.073.179.078.179.48.195l.401.017v-.152c-.005-.216-.125-.53-.282-.746-.182-.25-.5-.412-.86-.444-.245-.021-.307-.011-.406.087zm4.978-.038c-.26.07-.636.422-.74.698a1.798 1.798 0 0 0-.098.487v.006c-.011.232.01.287.135.4.307.271.714.06.714-.373 0-.211.156-.357.433-.411.292-.054.397-.173.401-.449 0-.362-.323-.503-.845-.357z"/></symbol><symbol id="icon-cow" viewBox="0 0 32 32"><path d="M6.002.778c-.259.216-.977 1.73-1.237 2.56a7.692 7.692 0 0 0-.38 2.873l-.001-.02c.061 1.514.432 2.655 1.28 3.857.216.311.389.588.389.605a13.167 13.167 0 0 0-3.527.614l.093-.026c-1.635.493-2.621 1.367-2.621 2.335 0 .346.311.934.64 1.228.64.579 2.041 1.124 3.546 1.384.519.104 2.076.259 2.422.268.061 0 .087.346.087 1.444 0 .951.035 1.686.104 2.145.259 1.617 1.038 3.338 2.084 4.549l.363.415-.242.389c-.346.553-.484.969-.528 1.591-.104 1.488.822 2.811 2.621 3.745 3.425 1.773 8.735 1.081 10.733-1.41.969-1.211 1.09-2.595.32-3.857l-.242-.389.432-.519a8.981 8.981 0 0 0 1.695-3.084l.017-.064c.337-1.038.458-2.041.458-3.632 0-.718.026-1.323.061-1.323.32 0 1.877-.173 2.37-.259 1.522-.259 2.889-.804 3.546-1.384.346-.303.649-.891.649-1.237 0-1.081-1.098-1.955-3.139-2.482-.675-.173-1.929-.389-2.543-.432l-.294-.017.32-.432a8.318 8.318 0 0 0 1.065-2.189l.016-.06c.528-1.972.199-4.264-.951-6.452-.476-.908-.804-1.116-1.194-.761-.147.138-.208.329-.346 1.021a10.515 10.515 0 0 1-2.458 5.21l.01-.012-.519.571H9.962l-.45-.502a10.874 10.874 0 0 1-2.421-5.211l-.009-.064c-.147-.683-.208-.865-.355-1.012-.242-.208-.467-.199-.726.026zm.9 4.325c.372.822.839 1.591 1.384 2.301l.441.562-.458.346c-.432.329-.83.796-1.142 1.323l-.13.242-.346-.458a6.127 6.127 0 0 1-1.149-3.587c0-.71.12-1.391.34-2.026l-.013.043c.294-.977.285-.977.553-.13.13.415.363 1.038.519 1.384zm18.335-1.54a7.06 7.06 0 0 1 .407 2.465c0 1.332-.355 2.456-1.098 3.459l-.329.458-.242-.415a4.351 4.351 0 0 0-1.237-1.358 1.696 1.696 0 0 1-.337-.26 11.26 11.26 0 0 0 2.313-4.071l.022-.08c.13-.415.259-.761.277-.761.026 0 .13.259.225.562zm-3.598 5.345a3.039 3.039 0 0 1 1.639 2.055l.004.02c.069.432.216.709.407.752.087.017.666.069 1.297.112 2.223.147 3.978.623 4.722 1.271.346.303.311.562-.104.873-.83.631-2.629 1.107-4.454 1.185-1.211.052-1.47.086-1.626.259-.121.121-.138.259-.138 1.574 0 1.799-.087 2.828-.32 3.658a8.85 8.85 0 0 1-1.681 3.215l.012-.015-.303.346-.631-.372a7.598 7.598 0 0 0-2.274-.932l-.053-.01c-2.664-.64-5.622-.251-7.611 1.003l-.45.294-.294-.346a10.54 10.54 0 0 1-1.226-1.944l-.028-.063c-.545-1.254-.709-2.283-.709-4.532 0-2.188.112-2.024-1.505-2.11-2.076-.112-3.65-.484-4.644-1.116-.735-.467-.605-.882.406-1.375.977-.476 2.326-.761 4.195-.873 1.453-.095 1.488-.121 1.617-.822A2.856 2.856 0 0 1 9.83 8.806l.02-.005c.251-.069 1.635-.086 5.855-.086l5.535.017.398.173zm-3.961 15.135c1.73.424 3.018 1.211 3.572 2.197.138.225.19.458.225.813.026.45 0 .553-.173.925-.778 1.661-3.65 2.75-6.573 2.508-3.511-.294-5.829-2.249-4.912-4.177.493-1.038 2.162-2.032 3.918-2.326.294-.043.579-.087.64-.112a19.908 19.908 0 0 1 3.409.185l-.105-.012z"/><path d="M10.69 12.575c-.432.147-.726.346-1.124.735-.346.329-.372.718-.086.951.268.216.519.19.848-.095.406-.363.726-.502 1.124-.502.389-.009.692.13 1.116.502.329.285.579.311.848.086.138-.112.182-.208.182-.424 0-.225-.052-.329-.294-.579-.692-.692-1.73-.969-2.612-.675zm8.216 0c-.45.164-1.029.545-1.263.83-.225.277-.233.588 0 .822.233.259.519.242.856-.043.83-.692 1.453-.709 2.214-.069.199.173.432.303.493.303.346 0 .631-.311.631-.675 0-.233-.588-.778-1.116-1.038a2.404 2.404 0 0 0-1.834-.125l.017-.005zM11.71 26.102c-.199.199-.268.484-.173.709.086.19.208.259.692.389.216.061.311.13.389.32.095.242.104.242.649.259l.536.026v-.208c0-.294-.173-.718-.381-1.012a1.608 1.608 0 0 0-1.154-.605h-.005c-.329-.017-.415 0-.553.121zm6.729-.044c-.346.087-.856.562-.995.943-.069.164-.13.467-.138.657-.009.32.017.389.182.545.415.363.969.087.969-.502 0-.285.208-.484.588-.562.389-.069.528-.233.536-.605 0-.484-.432-.675-1.142-.476z"/></symbol><symbol id="icon-weight" viewBox="0 0 32 32"><path d="M14.178.551c-3.973.587-7.244 2.791-8.444 5.689a5.525 5.525 0 0 0-.497 2.581v-.012c.009.809.044 1.111.169 1.547.258.862.444 1.307.827 1.92l.356.578-.4.489A11.989 11.989 0 0 0 3.56 20.86c0 2.318.654 4.484 1.787 6.322l-.03-.052c.978 1.636 2.578 3.236 4.151 4.178l.462.267 6.364-.044 6.382-.062.302-.169a13.673 13.673 0 0 0 3.358-2.979l.02-.026c1.262-1.636 2.08-3.547 2.427-5.618.116-.738.116-2.933 0-3.627a12.41 12.41 0 0 0-2.482-5.645l.02.027a5.867 5.867 0 0 1-.421-.572l-.014-.024.293-.489a7.988 7.988 0 0 0 .862-1.956c.196-.72.196-2.524 0-3.236-.711-2.551-2.844-4.684-5.849-5.858-.836-.329-2.276-.676-3.209-.8-.862-.089-2.996-.071-3.804.053zm4.489 1.165c3.947.773 6.836 3.191 7.369 6.16.116.667.044 1.804-.16 2.436-.196.622-.569 1.351-1.004 1.964-.178.249-.32.533-.32.631 0 .089.151.338.373.587 1.849 2.044 2.818 4.613 2.818 7.387 0 3.156-1.218 5.92-3.556 8.089-.391.382-.96.844-1.262 1.049l-.56.373-12.204.044-.48-.302c-3.045-1.997-5.027-5.394-5.027-9.254 0-2.733.994-5.234 2.64-7.161l-.013.015c.391-.453.569-.729.569-.862 0-.107-.187-.462-.444-.827a5.57 5.57 0 0 1-1.081-3.313 5.7 5.7 0 0 1 .053-.778l-.003.029A6.23 6.23 0 0 1 8.36 4.379l.006-.005a10.75 10.75 0 0 1 5.966-2.75l.052-.005c1.013-.151 3.253-.089 4.284.098z"/><path d="M14.507 2.987c-3.022.489-5.396 2.178-6.169 4.382-.178.498-.213.684-.213 1.404 0 .711.036.898.213 1.396.107.32.311.756.453.978.382.622.551.64 1.316.178a11.738 11.738 0 0 1 3.727-1.471l.078-.014c.916-.187 2.667-.267 3.671-.142 1.556.178 3.253.738 4.604 1.538.382.222.773.409.871.409.56 0 1.28-1.618 1.28-2.871 0-2.8-2.676-5.191-6.471-5.787-.8-.133-2.578-.133-3.36 0zm3.662 1.146c1.271.267 2.436.791 3.316 1.476 1.182.907 1.813 2.187 1.716 3.413-.044.489-.222 1.156-.338 1.218-.027.018-.444-.151-.916-.382a14.096 14.096 0 0 0-3.227-1.102c-.684-.142-.978-.169-2.516-.16-1.511 0-1.831.027-2.489.16a12.74 12.74 0 0 0-3.111 1.067c-1.102.524-1.04.533-1.244-.116-.258-.844-.089-1.956.409-2.8a6.571 6.571 0 0 1 1.51-1.543l.019-.013c1.013-.693 1.893-1.013 3.804-1.351.391-.071 2.56.027 3.067.133zm-1.209 9.271c-.204.267-.204.507.009.711.142.133.284.178.791.213a6.477 6.477 0 0 1 2.782.844 7.538 7.538 0 0 1 1.932 1.837l.015.021a6.112 6.112 0 0 1 1.031 3.114l.001.015c0 .329.036.436.187.578.24.24.551.24.773 0 .169-.169.178-.213.124-.916-.303-3.559-3.161-6.362-6.718-6.577l-.02-.001-.738-.044-.169.204z"/></symbol><symbol id="icon-ice-crema" viewBox="0 0 32 32"><path d="M16.107.107c.089.213.24 1.244.24 1.573 0 .8-.293 1.538-.836 2.124-.444.48-.889.747-1.973 1.182a5.98 5.98 0 0 0-2.261 1.336l.003-.003a3.437 3.437 0 0 0-1.019 1.909l-.003.02c-.133.8 0 1.36.409 1.68l.204.16-.329.204c-.658.444-1.867 1.467-2.071 1.778-.4.604-.356 1.156.089 1.396l.222.107-.249.222c-.356.347-.436.578-.382 1.191.036.409.027.631-.071.969-.116.436-.116.444.036.747s.56.684.933.844c.178.08.187.107.231.72l.08 2.516c.018 1.031.071 1.982.107 2.089a.81.81 0 0 0 .273.363l.002.002c.391.267.658.56.827.889.196.382.409 1.324 1.067 4.56l.444 2.276.284.267c.533.533 1.564.773 3.244.773 1.698 0 2.711-.231 3.244-.764l.284-.267.418-2.116c.916-4.613.996-4.871 1.716-5.44.222-.178.436-.4.471-.498.053-.116.089-.987.133-2.311.027-1.182.062-2.347.089-2.596l.044-.444.436-.329c.542-.427.764-.8.764-1.396-.009-.693-.462-1.458-1.298-2.142l-.391-.32.196-.276c.8-1.12.293-2.667-1.209-3.698l-.453-.311.169-.178c.738-.8.862-3.173.24-4.827a6.98 6.98 0 0 0-2.265-2.831l-.019-.014a14.061 14.061 0 0 0-1.98-1.207l-.082-.037c-.027 0-.027.044 0 .107zm1.929 2.337c.356.356.782.827.951 1.067.996 1.387 1.244 3.138.649 4.418a5.481 5.481 0 0 1-1.618 1.757L18 9.698c-1.022.711-3.324 1.893-4.933 2.551-2.578 1.049-4.089 1.253-4.258.569-.062-.267.133-.471.951-1.022.747-.507 4.08-2.987 4.142-3.084-.296.106-.545.22-.783.352l.027-.014c-1.449.738-2.133.596-2.107-.427.018-.747.56-1.582 1.298-2.071.187-.116.773-.382 1.307-.596 1.76-.711 2.293-1.076 2.889-1.964a5.393 5.393 0 0 0 .823-2.157l.004-.03c.018 0 .32.293.676.64zm1.831 7.6c.489.276.996.747 1.218 1.111.382.667.178 1.333-.649 2.169a10.879 10.879 0 0 1-4.101 2.353l-.077.021c-1.564.516-3.076.756-5.227.827l-1.342.053.871.053c1.12.071 3.298 0 4.142-.133a13.05 13.05 0 0 0 5.559-2.074l-.048.03c.311-.213.631-.391.72-.391.222 0 1.191.924 1.378 1.307.107.222.133.382.116.596-.098.889-1.182 1.369-3.804 1.689-3.2.373-7.378 0-9.164-.827-.844-.382-.987-.604-.773-1.191.062-.196.08-.409.053-.729-.036-.409-.027-.462.124-.622.329-.356.889-.569 2.951-1.093.729-.178 1.707-.48 2.178-.649a26.352 26.352 0 0 0 4.375-2.224l-.109.064c.933-.622 1.067-.64 1.6-.338zm-8.889 8.196c1.404.409 2.649.533 4.96.489 1.742-.036 2.818-.142 4.356-.418l.622-.098c.08 0 .062 2.569-.018 3.244-.089.711-.284 1.271-.489 1.404-.213.142-1.289.284-2.72.364-2.933.16-5.956 0-6.898-.373-.507-.204-.56-.471-.569-2.96 0-1.653.018-1.876.098-1.849.062.027.356.116.658.196zm1.582 5.689 1.449.178-.249.284c-.329.356-.836 1.067-1.013 1.422-.204.418-.267.444-.578.276l-.267-.151-.142-.907-.187-1.049c-.062-.178-.124-.178.987-.053zm7.138-.071-.071.382-.373 2.427c-.338 2.382-.569 3.502-.773 3.876-.293.498-.978.8-2.098.889a8.802 8.802 0 0 1-1.875-.132l.053.008a8.583 8.583 0 0 1 1.278-1.571l.002-.002c.169-.089.213-.089.782.213.667.347.996.4.996.178s-.178-.436-.596-.729c-.4-.284-.533-.444-.533-.622 0-.062.187-.356.427-.676.231-.311.569-.818.747-1.12l.329-.533.302.036c.604.089.764.08.747-.053-.009-.071-.124-.267-.258-.427a1.472 1.472 0 0 1-.218-.355l-.004-.01c0-.133.622-1.298.818-1.547.178-.213.32-.32.32-.231zm-4.178.533c.329.222 1.582 1.316 1.662 1.449.036.062-1.253 2.08-1.511 2.373-.027.027-.169-.036-.302-.142a20.305 20.305 0 0 0-1.079-.748l-.086-.052-.907-.604.533-.916c.978-1.609.951-1.582 1.156-1.582.107 0 .347.098.533.222zm2.533.249c-.24.284-.436.462-.516.462-.178 0-.444-.151-.924-.498l-.4-.293.8-.044c.418-.018.836-.044.907-.062.533-.089.533-.08.133.436zm-5.066 3.218c.622.24 1.662.8 1.956 1.067.222.178.222.178.133.4-.053.116-.231.444-.409.711s-.382.604-.444.747c-.222.418-.293.444-.729.329-.48-.142-.729-.382-.862-.818-.178-.613-.471-2.329-.444-2.596.018-.107.302-.044.8.16z"/></symbol><symbol id="icon-arrow-btn" viewBox="0 0 12 12"><path d="M3.97 1.227a.75.75 0 0 0 0 1.06L7.682 6 3.97 9.712a.75.75 0 0 0 1.06 1.061L9.273 6.53a.75.75 0 0 0 0-1.06L5.03 1.227a.75.75 0 0 0-1.06 0Z"/></symbol><symbol id="icon-vector" viewBox="0 0 22 32"><path d="M3.104.736c-.434.434-.702 1.034-.702 1.696s.268 1.262.702 1.696L14.976 16 3.104 27.872a2.4 2.4 0 0 0 3.394 3.391l-.001.001 13.568-13.568c.434-.434.702-1.034.702-1.696s-.268-1.262-.702-1.696L6.497.736C6.063.302 5.463.034 4.801.034S3.539.302 3.105.736z"/></symbol><symbol id="icon-facebook" viewBox="0 0 32 32"><path d="M20.442 15.981h-2.607V25.6h-3.953v-9.619H12v-3.388h1.882v-2.184c0-1.562.734-4.009 3.991-4.009l2.927.009v3.285h-2.127c-.348 0-.838.179-.838.922v1.986h2.955l-.348 3.379z"/></symbol><symbol id="icon-github" viewBox="0 0 32 32"><path d="M16 6.588c-5.176 0-9.412 4.235-9.412 9.412 0 4.414 3.096 8.414 7.209 9.412v-3.106a2.312 2.312 0 0 1-2.535-1.118l-.006-.012c-.216-.376-.593-.753-.988-.734l-.094-1.092c.847-.075 1.591.518 2.024 1.252.198.329.424.527.715.612.282.075.574.038.922-.085.094-.696.405-.96.649-1.318v-.009c-2.447-.367-3.426-1.666-3.821-2.692a4.245 4.245 0 0 1-.254-1.461c0-1.017.351-1.951.939-2.689l-.007.009c.019-.019.047-.075.038-.113-.424-1.261.094-2.306.104-2.409.48.141.565-.151 2.089.781l.264.16c.113.066.075.028.188.019A8.764 8.764 0 0 1 16 11.125a9.236 9.236 0 0 1 2.005.282l.085.019.075-.038c1.911-1.158 1.845-.781 2.353-.941.019.104.518 1.167.104 2.409-.056.169 1.656 1.732.715 4.254-.395 1.026-1.365 2.325-3.821 2.692.311.48.696.734.687 1.722v3.887c4.113-.998 7.209-4.998 7.209-9.412 0-5.176-4.235-9.412-9.412-9.412z"/></symbol><symbol id="icon-telegram" viewBox="0 0 32 32"><path d="m12.866 18.372-.311 4.169c.452 0 .649-.179.885-.395l2.127-1.901 4.424 3.012c.8.424 1.374.207 1.591-.687l2.899-12.678c.254-1.12-.433-1.553-1.224-1.28L6.222 14.701c-1.158.414-1.139 1.026-.188 1.299l4.348 1.261L20.5 11.36c.471-.301.904-.132.555.16l-8.188 6.852z"/></symbol></defs></svg>