<svg aria-hidden="true" style="position: absolute; width: 0; height: 0; overflow: hidden;" version="1.1" xmlns="http://www.w3.org/2000/svg" xmlns:xlink="http://www.w3.org/1999/xlink">
<defs>


<!-- MENU AND MODAL ICONS -->
<symbol id="icon-close" viewBox="0 0 32 32">
<path fill="#fcfcfc" style="fill: var(--color1, #fcfcfc)" d="M23.88 6.7l-7.88 7.9-7.88-7.89c-0.171-0.139-0.391-0.224-0.631-0.224-0.552 0-1 0.448-1 1 0 0.232 0.079 0.446 0.212 0.616l-0.002-0.002 7.89 7.9-7.89 7.88c-0.215 0.184-0.35 0.456-0.35 0.76 0 0.552 0.448 1 1 1 0.303 0 0.575-0.135 0.758-0.348l0.001-0.001 7.89-7.88 7.88 7.89c0.174 0.149 0.401 0.24 0.65 0.24 0.552 0 1-0.448 1-1 0-0.249-0.091-0.477-0.242-0.652l0.001 0.001-7.88-7.89 7.88-7.88c0.218-0.185 0.355-0.458 0.355-0.764 0-0.552-0.448-1-1-1-0.301 0-0.57 0.133-0.754 0.343l-0.001 0.001z"></path>
</symbol>
<symbol id="icon-menu" viewBox="0 0 32 32">
<path fill="#fff" style="fill: var(--color4, #fff)" d="M26.73 14.67h-21.46c-0.7 0-1.27 0.56-1.27 1.26v0.14c0 0.7 0.57 1.26 1.27 1.26h21.46c0.7 0 1.27-0.56 1.27-1.26v-0.14c0-0.7-0.57-1.26-1.27-1.26zM26.73 21.33h-21.46c-0.7 0-1.27 0.57-1.27 1.27v0.13c0 0.7 0.57 1.27 1.27 1.27h21.46c0.7 0 1.27-0.57 1.27-1.27v-0.13c0-0.7-0.57-1.27-1.27-1.27zM26.73 8h-21.46c-0.7 0-1.27 0.57-1.27 1.27v0.13c0 0.7 0.57 1.27 1.27 1.27h21.46c0.7 0 1.27-0.57 1.27-1.27v-0.13c0-0.7-0.57-1.27-1.27-1.27z"></path>
</symbol>



<!-- HERO ICONS -->
<symbol id="icon-dots-desktop" viewBox="0 0 100 32">
<path fill="#f8d24e" style="fill: var(--color2, #f8d24e)" d="M45.81 25.797c0 0.287-0.219 0.52-0.488 0.52s-0.488-0.233-0.488-0.52c0-0.287 0.219-0.52 0.488-0.52s0.488 0.233 0.488 0.52z"></path>
<path fill="#f8d24e" style="fill: var(--color2, #f8d24e)" d="M46.949 25.103c0 0.287-0.219 0.52-0.488 0.52s-0.488-0.233-0.488-0.52c0-0.287 0.219-0.52 0.488-0.52s0.488 0.233 0.488 0.52z"></path>
<path fill="#f8d24e" style="fill: var(--color2, #f8d24e)" d="M44.915 27.705c0 0.287-0.219 0.52-0.488 0.52s-0.488-0.233-0.488-0.52c0-0.287 0.219-0.52 0.488-0.52s0.488 0.233 0.488 0.52z"></path>
<path fill="#f8d24e" style="fill: var(--color2, #f8d24e)" d="M45.972 27.012c0 0.287-0.219 0.52-0.488 0.52s-0.488-0.233-0.488-0.52c0-0.287 0.219-0.52 0.488-0.52s0.488 0.233 0.488 0.52z"></path>
<path fill="#f8d24e" style="fill: var(--color2, #f8d24e)" d="M47.193 26.231c0 0.287-0.219 0.52-0.488 0.52s-0.488-0.233-0.488-0.52c0-0.287 0.219-0.52 0.488-0.52s0.488 0.233 0.488 0.52z"></path>
<path fill="#f8d24e" style="fill: var(--color2, #f8d24e)" d="M48.333 25.538c0 0.287-0.219 0.52-0.488 0.52s-0.488-0.233-0.488-0.52c0-0.287 0.219-0.52 0.488-0.52s0.488 0.233 0.488 0.52z"></path>
<path fill="#f8d24e" style="fill: var(--color2, #f8d24e)" d="M46.705 27.792c0 0.287-0.219 0.52-0.488 0.52s-0.488-0.233-0.488-0.52c0-0.287 0.219-0.52 0.488-0.52s0.488 0.233 0.488 0.52z"></path>
<path fill="#f8d24e" style="fill: var(--color2, #f8d24e)" d="M47.763 27.098c0 0.287-0.219 0.52-0.488 0.52s-0.488-0.233-0.488-0.52c0-0.287 0.219-0.52 0.488-0.52s0.488 0.233 0.488 0.52z"></path>
<path fill="#f8d24e" style="fill: var(--color2, #f8d24e)" d="M48.983 26.317c0 0.287-0.219 0.52-0.488 0.52s-0.488-0.233-0.488-0.52c0-0.287 0.219-0.52 0.488-0.52s0.488 0.233 0.488 0.52z"></path>
<path fill="#f8d24e" style="fill: var(--color2, #f8d24e)" d="M50.123 25.624c0 0.287-0.219 0.52-0.488 0.52s-0.488-0.233-0.488-0.52c0-0.287 0.219-0.52 0.488-0.52s0.488 0.233 0.488 0.52z"></path>
<path fill="#f8d24e" style="fill: var(--color2, #f8d24e)" d="M48.82 27.792c0 0.287-0.219 0.52-0.488 0.52s-0.488-0.233-0.488-0.52c0-0.287 0.219-0.52 0.488-0.52s0.488 0.233 0.488 0.52z"></path>
<path fill="#f8d24e" style="fill: var(--color2, #f8d24e)" d="M49.878 27.098c0 0.287-0.219 0.52-0.488 0.52s-0.488-0.233-0.488-0.52c0-0.287 0.219-0.52 0.488-0.52s0.488 0.233 0.488 0.52z"></path>
<path fill="#f8d24e" style="fill: var(--color2, #f8d24e)" d="M51.098 26.317c0 0.287-0.219 0.52-0.488 0.52s-0.488-0.233-0.488-0.52c0-0.287 0.219-0.52 0.488-0.52s0.488 0.233 0.488 0.52z"></path>
<path fill="#f8d24e" style="fill: var(--color2, #f8d24e)" d="M52.237 25.624c0 0.287-0.219 0.52-0.488 0.52s-0.488-0.233-0.488-0.52c0-0.287 0.219-0.52 0.488-0.52s0.488 0.233 0.488 0.52z"></path>
<path fill="#f8d24e" style="fill: var(--color2, #f8d24e)" d="M50.61 27.705c0 0.287-0.219 0.52-0.488 0.52s-0.488-0.233-0.488-0.52c0-0.287 0.219-0.52 0.488-0.52s0.488 0.233 0.488 0.52z"></path>
<path fill="#f8d24e" style="fill: var(--color2, #f8d24e)" d="M51.668 27.012c0 0.287-0.219 0.52-0.488 0.52s-0.488-0.233-0.488-0.52c0-0.287 0.219-0.52 0.488-0.52s0.488 0.233 0.488 0.52z"></path>
<path fill="#f8d24e" style="fill: var(--color2, #f8d24e)" d="M52.888 26.231c0 0.287-0.219 0.52-0.488 0.52s-0.488-0.233-0.488-0.52c0-0.287 0.219-0.52 0.488-0.52s0.488 0.233 0.488 0.52z"></path>
<path fill="#f8d24e" style="fill: var(--color2, #f8d24e)" d="M54.028 25.538c0 0.287-0.219 0.52-0.488 0.52s-0.488-0.233-0.488-0.52c0-0.287 0.219-0.52 0.488-0.52s0.488 0.233 0.488 0.52z"></path>
<path fill="#f8d24e" style="fill: var(--color2, #f8d24e)" d="M52.645 27.618c0 0.287-0.219 0.52-0.488 0.52s-0.488-0.233-0.488-0.52c0-0.287 0.219-0.52 0.488-0.52s0.488 0.233 0.488 0.52z"></path>
<path fill="#f8d24e" style="fill: var(--color2, #f8d24e)" d="M53.703 26.925c0 0.287-0.219 0.52-0.488 0.52s-0.488-0.233-0.488-0.52c0-0.287 0.219-0.52 0.488-0.52s0.488 0.233 0.488 0.52z"></path>
<path fill="#f8d24e" style="fill: var(--color2, #f8d24e)" d="M54.922 26.144c0 0.287-0.219 0.52-0.488 0.52s-0.488-0.233-0.488-0.52c0-0.287 0.219-0.52 0.488-0.52s0.488 0.233 0.488 0.52z"></path>
<path fill="#f8d24e" style="fill: var(--color2, #f8d24e)" d="M56.062 25.45c0 0.287-0.219 0.52-0.488 0.52s-0.488-0.233-0.488-0.52c0-0.287 0.219-0.52 0.488-0.52s0.488 0.233 0.488 0.52z"></path>
<path fill="#f8d24e" style="fill: var(--color2, #f8d24e)" d="M54.516 25.363c0 0.287-0.219 0.52-0.488 0.52s-0.488-0.233-0.488-0.52c0-0.287 0.219-0.52 0.488-0.52s0.488 0.233 0.488 0.52z"></path>
<path fill="#f8d24e" style="fill: var(--color2, #f8d24e)" d="M55.573 24.67c0 0.287-0.219 0.52-0.488 0.52s-0.488-0.233-0.488-0.52c0-0.287 0.219-0.52 0.488-0.52s0.488 0.233 0.488 0.52z"></path>
<path fill="#f8d24e" style="fill: var(--color2, #f8d24e)" d="M56.794 23.889c0 0.287-0.219 0.52-0.488 0.52s-0.488-0.233-0.488-0.52c0-0.287 0.219-0.52 0.488-0.52s0.488 0.233 0.488 0.52z"></path>
<path fill="#f8d24e" style="fill: var(--color2, #f8d24e)" d="M57.933 23.196c0 0.287-0.219 0.52-0.488 0.52s-0.488-0.233-0.488-0.52c0-0.287 0.219-0.52 0.488-0.52s0.488 0.233 0.488 0.52z"></path>
</symbol>
<symbol id="icon-dots-mobile" viewBox="0 0 205 32">
<path fill="#f8d24e" style="fill: var(--color2, #f8d24e)" d="M156.538 29.619c0 0.983-0.745 1.779-1.664 1.779s-1.664-0.797-1.664-1.779c0-0.983 0.745-1.779 1.664-1.779s1.664 0.797 1.664 1.779z"></path>
<path fill="#f8d24e" style="fill: var(--color2, #f8d24e)" d="M160.147 27.245c0 0.983-0.745 1.779-1.664 1.779s-1.664-0.797-1.664-1.779c0-0.983 0.745-1.779 1.664-1.779s1.664 0.797 1.664 1.779z"></path>
<path fill="#f8d24e" style="fill: var(--color2, #f8d24e)" d="M164.307 24.576c0 0.983-0.745 1.779-1.664 1.779s-1.664-0.797-1.664-1.779c0-0.983 0.745-1.779 1.664-1.779s1.664 0.797 1.664 1.779z"></path>
<path fill="#f8d24e" style="fill: var(--color2, #f8d24e)" d="M168.186 22.208c0 0.983-0.745 1.779-1.664 1.779s-1.664-0.797-1.664-1.779c0-0.983 0.745-1.779 1.664-1.779s1.664 0.797 1.664 1.779z"></path>
<path fill="#f8d24e" style="fill: var(--color2, #f8d24e)" d="M165.971 28.429c0 0.983-0.745 1.779-1.664 1.779s-1.664-0.797-1.664-1.779c0-0.983 0.745-1.779 1.664-1.779s1.664 0.797 1.664 1.779z"></path>
<path fill="#f8d24e" style="fill: var(--color2, #f8d24e)" d="M169.574 26.061c0 0.983-0.745 1.779-1.664 1.779s-1.664-0.797-1.664-1.779c0-0.983 0.745-1.779 1.664-1.779s1.664 0.797 1.664 1.779z"></path>
<path fill="#f8d24e" style="fill: var(--color2, #f8d24e)" d="M173.734 23.392c0 0.983-0.745 1.779-1.664 1.779s-1.664-0.797-1.664-1.779c0-0.983 0.745-1.779 1.664-1.779s1.664 0.797 1.664 1.779z"></path>
<path fill="#f8d24e" style="fill: var(--color2, #f8d24e)" d="M177.619 21.024c0 0.983-0.745 1.779-1.664 1.779s-1.664-0.797-1.664-1.779c0-0.983 0.745-1.779 1.664-1.779s1.664 0.797 1.664 1.779z"></path>
<path fill="#f8d24e" style="fill: var(--color2, #f8d24e)" d="M174.016 27.539c0 0.983-0.745 1.779-1.664 1.779s-1.664-0.797-1.664-1.779c0-0.983 0.745-1.779 1.664-1.779s1.664 0.797 1.664 1.779z"></path>
<path fill="#f8d24e" style="fill: var(--color2, #f8d24e)" d="M177.619 25.171c0 0.983-0.745 1.779-1.664 1.779s-1.664-0.797-1.664-1.779c0-0.983 0.745-1.779 1.664-1.779s1.664 0.797 1.664 1.779z"></path>
<path fill="#f8d24e" style="fill: var(--color2, #f8d24e)" d="M181.779 22.502c0 0.983-0.745 1.779-1.664 1.779s-1.664-0.797-1.664-1.779c0-0.983 0.745-1.779 1.664-1.779s1.664 0.797 1.664 1.779z"></path>
<path fill="#f8d24e" style="fill: var(--color2, #f8d24e)" d="M185.664 20.134c0 0.983-0.745 1.779-1.664 1.779s-1.664-0.797-1.664-1.779c0-0.983 0.745-1.779 1.664-1.779s1.664 0.797 1.664 1.779z"></path>
<path fill="#f8d24e" style="fill: var(--color2, #f8d24e)" d="M181.779 26.355c0 0.983-0.745 1.779-1.664 1.779s-1.664-0.797-1.664-1.779c0-0.983 0.745-1.779 1.664-1.779s1.664 0.797 1.664 1.779z"></path>
<path fill="#f8d24e" style="fill: var(--color2, #f8d24e)" d="M185.382 23.987c0 0.983-0.745 1.779-1.664 1.779s-1.664-0.797-1.664-1.779c0-0.983 0.745-1.779 1.664-1.779s1.664 0.797 1.664 1.779z"></path>
<path fill="#f8d24e" style="fill: var(--color2, #f8d24e)" d="M189.542 21.318c0 0.983-0.745 1.779-1.664 1.779s-1.664-0.797-1.664-1.779c0-0.983 0.745-1.779 1.664-1.779s1.664 0.797 1.664 1.779z"></path>
<path fill="#f8d24e" style="fill: var(--color2, #f8d24e)" d="M193.427 18.944c0 0.983-0.745 1.779-1.664 1.779s-1.664-0.797-1.664-1.779c0-0.983 0.745-1.779 1.664-1.779s1.664 0.797 1.664 1.779z"></path>
<path fill="#f8d24e" style="fill: var(--color2, #f8d24e)" d="M184.275 29.619c0 0.983-0.745 1.779-1.664 1.779s-1.664-0.797-1.664-1.779c0-0.983 0.745-1.779 1.664-1.779s1.664 0.797 1.664 1.779z"></path>
<path fill="#f8d24e" style="fill: var(--color2, #f8d24e)" d="M187.878 27.245c0 0.983-0.745 1.779-1.664 1.779s-1.664-0.797-1.664-1.779c0-0.983 0.745-1.779 1.664-1.779s1.664 0.797 1.664 1.779z"></path>
<path fill="#f8d24e" style="fill: var(--color2, #f8d24e)" d="M192.87 29.914c0 0.983-0.745 1.779-1.664 1.779s-1.664-0.797-1.664-1.779c0-0.983 0.745-1.779 1.664-1.779s1.664 0.797 1.664 1.779z"></path>
<path fill="#f8d24e" style="fill: var(--color2, #f8d24e)" d="M192.038 24.576c0 0.983-0.745 1.779-1.664 1.779s-1.664-0.797-1.664-1.779c0-0.983 0.745-1.779 1.664-1.779s1.664 0.797 1.664 1.779z"></path>
<path fill="#f8d24e" style="fill: var(--color2, #f8d24e)" d="M197.037 27.245c0 0.983-0.745 1.779-1.664 1.779s-1.664-0.797-1.664-1.779c0-0.983 0.745-1.779 1.664-1.779s1.664 0.797 1.664 1.779z"></path>
<path fill="#f8d24e" style="fill: var(--color2, #f8d24e)" d="M200.915 29.914c0 0.983-0.745 1.779-1.664 1.779s-1.664-0.797-1.664-1.779c0-0.983 0.745-1.779 1.664-1.779s1.664 0.797 1.664 1.779z"></path>
<path fill="#f8d24e" style="fill: var(--color2, #f8d24e)" d="M195.923 22.208c0 0.983-0.745 1.779-1.664 1.779s-1.664-0.797-1.664-1.779c0-0.983 0.745-1.779 1.664-1.779s1.664 0.797 1.664 1.779z"></path>
<path fill="#f8d24e" style="fill: var(--color2, #f8d24e)" d="M200.915 24.877c0 0.983-0.745 1.779-1.664 1.779s-1.664-0.797-1.664-1.779c0-0.983 0.745-1.779 1.664-1.779s1.664 0.797 1.664 1.779z"></path>
<path fill="#f8d24e" style="fill: var(--color2, #f8d24e)" d="M204.8 27.539c0 0.983-0.745 1.779-1.664 1.779s-1.664-0.797-1.664-1.779c0-0.983 0.745-1.779 1.664-1.779s1.664 0.797 1.664 1.779z"></path>
<path fill="#f8d24e" style="fill: var(--color2, #f8d24e)" d="M139.622 10.054c0 0.983-0.745 1.779-1.664 1.779s-1.664-0.797-1.664-1.779c0-0.983 0.745-1.779 1.664-1.779s1.664 0.797 1.664 1.779z"></path>
<path fill="#f8d24e" style="fill: var(--color2, #f8d24e)" d="M143.226 7.686c0 0.983-0.745 1.779-1.664 1.779s-1.664-0.797-1.664-1.779c0-0.983 0.745-1.779 1.664-1.779s1.664 0.797 1.664 1.779z"></path>
<path fill="#f8d24e" style="fill: var(--color2, #f8d24e)" d="M147.386 5.018c0 0.983-0.745 1.779-1.664 1.779s-1.664-0.797-1.664-1.779c0-0.983 0.745-1.779 1.664-1.779s1.664 0.797 1.664 1.779z"></path>
<path fill="#f8d24e" style="fill: var(--color2, #f8d24e)" d="M151.27 2.643c0 0.983-0.745 1.779-1.664 1.779s-1.664-0.797-1.664-1.779c0-0.983 0.745-1.779 1.664-1.779s1.664 0.797 1.664 1.779z"></path>
<path fill="#f8d24e" style="fill: var(--color2, #f8d24e)" d="M132.685 9.76c0 0.983-0.745 1.779-1.664 1.779s-1.664-0.797-1.664-1.779c0-0.983 0.745-1.779 1.664-1.779s1.664 0.797 1.664 1.779z"></path>
<path fill="#f8d24e" style="fill: var(--color2, #f8d24e)" d="M136.294 7.386c0 0.983-0.745 1.779-1.664 1.779s-1.664-0.797-1.664-1.779c0-0.983 0.745-1.779 1.664-1.779s1.664 0.797 1.664 1.779z"></path>
<path fill="#f8d24e" style="fill: var(--color2, #f8d24e)" d="M140.454 4.717c0 0.983-0.745 1.779-1.664 1.779s-1.664-0.797-1.664-1.779c0-0.983 0.745-1.779 1.664-1.779s1.664 0.797 1.664 1.779z"></path>
<path fill="#f8d24e" style="fill: var(--color2, #f8d24e)" d="M144.333 2.349c0 0.983-0.745 1.779-1.664 1.779s-1.664-0.797-1.664-1.779c0-0.983 0.745-1.779 1.664-1.779s1.664 0.797 1.664 1.779z"></path>
<path fill="#f8d24e" style="fill: var(--color2, #f8d24e)" d="M148.218 29.619c0 0.983-0.745 1.779-1.664 1.779s-1.664-0.797-1.664-1.779c0-0.983 0.745-1.779 1.664-1.779s1.664 0.797 1.664 1.779z"></path>
<path fill="#f8d24e" style="fill: var(--color2, #f8d24e)" d="M151.827 27.245c0 0.983-0.745 1.779-1.664 1.779s-1.664-0.797-1.664-1.779c0-0.983 0.745-1.779 1.664-1.779s1.664 0.797 1.664 1.779z"></path>
<path fill="#f8d24e" style="fill: var(--color2, #f8d24e)" d="M155.987 24.576c0 0.983-0.745 1.779-1.664 1.779s-1.664-0.797-1.664-1.779c0-0.983 0.745-1.779 1.664-1.779s1.664 0.797 1.664 1.779z"></path>
<path fill="#f8d24e" style="fill: var(--color2, #f8d24e)" d="M159.866 22.208c0 0.983-0.745 1.779-1.664 1.779s-1.664-0.797-1.664-1.779c0-0.983 0.745-1.779 1.664-1.779s1.664 0.797 1.664 1.779z"></path>
<path fill="#f8d24e" style="fill: var(--color2, #f8d24e)" d="M143.782 27.84c0 0.983-0.745 1.779-1.664 1.779s-1.664-0.797-1.664-1.779c0-0.983 0.745-1.779 1.664-1.779s1.664 0.797 1.664 1.779z"></path>
<path fill="#f8d24e" style="fill: var(--color2, #f8d24e)" d="M147.386 25.466c0 0.983-0.745 1.779-1.664 1.779s-1.664-0.797-1.664-1.779c0-0.983 0.745-1.779 1.664-1.779s1.664 0.797 1.664 1.779z"></path>
<path fill="#f8d24e" style="fill: var(--color2, #f8d24e)" d="M151.546 22.797c0 0.983-0.745 1.779-1.664 1.779s-1.664-0.797-1.664-1.779c0-0.983 0.745-1.779 1.664-1.779s1.664 0.797 1.664 1.779z"></path>
<path fill="#f8d24e" style="fill: var(--color2, #f8d24e)" d="M155.43 20.429c0 0.983-0.745 1.779-1.664 1.779s-1.664-0.797-1.664-1.779c0-0.983 0.745-1.779 1.664-1.779s1.664 0.797 1.664 1.779z"></path>
<path fill="#f8d24e" style="fill: var(--color2, #f8d24e)" d="M145.446 21.613c0 0.983-0.745 1.779-1.664 1.779s-1.664-0.797-1.664-1.779c0-0.983 0.745-1.779 1.664-1.779s1.664 0.797 1.664 1.779z"></path>
<path fill="#f8d24e" style="fill: var(--color2, #f8d24e)" d="M149.050 19.245c0 0.983-0.745 1.779-1.664 1.779s-1.664-0.797-1.664-1.779c0-0.983 0.745-1.779 1.664-1.779s1.664 0.797 1.664 1.779z"></path>
<path fill="#f8d24e" style="fill: var(--color2, #f8d24e)" d="M153.21 16.576c0 0.983-0.745 1.779-1.664 1.779s-1.664-0.797-1.664-1.779c0-0.983 0.745-1.779 1.664-1.779s1.664 0.797 1.664 1.779z"></path>
<path fill="#f8d24e" style="fill: var(--color2, #f8d24e)" d="M157.094 14.202c0 0.983-0.745 1.779-1.664 1.779s-1.664-0.797-1.664-1.779c0-0.983 0.745-1.779 1.664-1.779s1.664 0.797 1.664 1.779z"></path>
<path fill="#f8d24e" style="fill: var(--color2, #f8d24e)" d="M145.446 11.238c0 0.983-0.745 1.779-1.664 1.779s-1.664-0.797-1.664-1.779c0-0.983 0.745-1.779 1.664-1.779s1.664 0.797 1.664 1.779z"></path>
<path fill="#f8d24e" style="fill: var(--color2, #f8d24e)" d="M149.050 8.87c0 0.983-0.745 1.779-1.664 1.779s-1.664-0.797-1.664-1.779c0-0.983 0.745-1.779 1.664-1.779s1.664 0.797 1.664 1.779z"></path>
<path fill="#f8d24e" style="fill: var(--color2, #f8d24e)" d="M153.21 6.202c0 0.983-0.745 1.779-1.664 1.779s-1.664-0.797-1.664-1.779c0-0.983 0.745-1.779 1.664-1.779s1.664 0.797 1.664 1.779z"></path>
<path fill="#f8d24e" style="fill: var(--color2, #f8d24e)" d="M157.094 3.834c0 0.983-0.745 1.779-1.664 1.779s-1.664-0.797-1.664-1.779c0-0.983 0.745-1.779 1.664-1.779s1.664 0.797 1.664 1.779z"></path>
<path fill="#f8d24e" style="fill: var(--color2, #f8d24e)" d="M144.614 16.87c0 0.983-0.745 1.779-1.664 1.779s-1.664-0.797-1.664-1.779c0-0.983 0.745-1.779 1.664-1.779s1.664 0.797 1.664 1.779z"></path>
<path fill="#f8d24e" style="fill: var(--color2, #f8d24e)" d="M148.218 14.502c0 0.983-0.745 1.779-1.664 1.779s-1.664-0.797-1.664-1.779c0-0.983 0.745-1.779 1.664-1.779s1.664 0.797 1.664 1.779z"></path>
<path fill="#f8d24e" style="fill: var(--color2, #f8d24e)" d="M152.378 11.834c0 0.983-0.745 1.779-1.664 1.779s-1.664-0.797-1.664-1.779c0-0.983 0.745-1.779 1.664-1.779s1.664 0.797 1.664 1.779z"></path>
<path fill="#f8d24e" style="fill: var(--color2, #f8d24e)" d="M156.262 9.466c0 0.983-0.745 1.779-1.664 1.779s-1.664-0.797-1.664-1.779c0-0.983 0.745-1.779 1.664-1.779s1.664 0.797 1.664 1.779z"></path>
<path fill="#f8d24e" style="fill: var(--color2, #f8d24e)" d="M127.142 8.275c0 0.983-0.745 1.779-1.664 1.779s-1.664-0.797-1.664-1.779c0-0.983 0.745-1.779 1.664-1.779s1.664 0.797 1.664 1.779z"></path>
<path fill="#f8d24e" style="fill: var(--color2, #f8d24e)" d="M130.746 5.907c0 0.983-0.745 1.779-1.664 1.779s-1.664-0.797-1.664-1.779c0-0.983 0.745-1.779 1.664-1.779s1.664 0.797 1.664 1.779z"></path>
<path fill="#f8d24e" style="fill: var(--color2, #f8d24e)" d="M134.906 3.238c0 0.983-0.745 1.779-1.664 1.779s-1.664-0.797-1.664-1.779c0-0.983 0.745-1.779 1.664-1.779s1.664 0.797 1.664 1.779z"></path>
<path fill="#f8d24e" style="fill: var(--color2, #f8d24e)" d="M132.966 10.054c0.915 0 1.664-0.794 1.664-1.779 0-0.979-0.749-1.779-1.664-1.779-0.922 0-1.664 0.8-1.664 1.779 0 0.986 0.742 1.779 1.664 1.779z"></path>
<path fill="#f8d24e" style="fill: var(--color2, #f8d24e)" d="M56.439 21.474c0.142 0.987-0.49 1.909-1.411 2.060s-1.782-0.527-1.924-1.513c-0.142-0.987 0.49-1.909 1.411-2.060s1.782 0.527 1.924 1.513z"></path>
<path fill="#f8d24e" style="fill: var(--color2, #f8d24e)" d="M59.715 18.504c0.142 0.987-0.49 1.909-1.411 2.060s-1.782-0.527-1.924-1.513c-0.142-0.987 0.49-1.909 1.411-2.060s1.782 0.527 1.924 1.513z"></path>
<path fill="#f8d24e" style="fill: var(--color2, #f8d24e)" d="M63.504 15.144c0.142 0.987-0.49 1.909-1.411 2.060s-1.782-0.527-1.924-1.513c-0.142-0.987 0.49-1.909 1.411-2.060s1.782 0.527 1.924 1.513z"></path>
<path fill="#f8d24e" style="fill: var(--color2, #f8d24e)" d="M67.056 12.13c0.142 0.987-0.49 1.909-1.411 2.060s-1.782-0.527-1.924-1.513c-0.142-0.987 0.49-1.909 1.411-2.060s1.782 0.527 1.924 1.513z"></path>
<path fill="#f8d24e" style="fill: var(--color2, #f8d24e)" d="M3.482 21.472c0 0.997-0.779 1.805-1.741 1.805s-1.741-0.808-1.741-1.805c0-0.997 0.779-1.805 1.741-1.805s1.741 0.808 1.741 1.805z"></path>
<path fill="#f8d24e" style="fill: var(--color2, #f8d24e)" d="M7.251 19.066c0 0.997-0.779 1.805-1.741 1.805s-1.741-0.808-1.741-1.805c0-0.997 0.779-1.805 1.741-1.805s1.741 0.808 1.741 1.805z"></path>
<path fill="#f8d24e" style="fill: var(--color2, #f8d24e)" d="M11.603 16.358c0 0.997-0.779 1.805-1.741 1.805s-1.741-0.808-1.741-1.805c0-0.997 0.779-1.805 1.741-1.805s1.741 0.808 1.741 1.805z"></path>
<path fill="#f8d24e" style="fill: var(--color2, #f8d24e)" d="M15.667 13.952c0 0.997-0.779 1.805-1.741 1.805s-1.741-0.808-1.741-1.805c0-0.997 0.779-1.805 1.741-1.805s1.741 0.808 1.741 1.805z"></path>
<path fill="#f8d24e" style="fill: var(--color2, #f8d24e)" d="M5.222 25.984c0 0.997-0.779 1.805-1.741 1.805s-1.741-0.808-1.741-1.805c0-0.997 0.779-1.805 1.741-1.805s1.741 0.808 1.741 1.805z"></path>
<path fill="#f8d24e" style="fill: var(--color2, #f8d24e)" d="M8.992 23.578c0 0.997-0.779 1.805-1.741 1.805s-1.741-0.808-1.741-1.805c0-0.997 0.779-1.805 1.741-1.805s1.741 0.808 1.741 1.805z"></path>
<path fill="#f8d24e" style="fill: var(--color2, #f8d24e)" d="M13.344 20.87c0 0.997-0.779 1.805-1.741 1.805s-1.741-0.808-1.741-1.805c0-0.997 0.779-1.805 1.741-1.805s1.741 0.808 1.741 1.805z"></path>
<path fill="#f8d24e" style="fill: var(--color2, #f8d24e)" d="M17.408 18.464c0 0.997-0.779 1.805-1.741 1.805s-1.741-0.808-1.741-1.805c0-0.997 0.779-1.805 1.741-1.805s1.741 0.808 1.741 1.805z"></path>
<path fill="#f8d24e" style="fill: var(--color2, #f8d24e)" d="M9.574 28.39c0 0.997-0.779 1.805-1.741 1.805s-1.741-0.808-1.741-1.805c0-0.997 0.779-1.805 1.741-1.805s1.741 0.808 1.741 1.805z"></path>
<path fill="#f8d24e" style="fill: var(--color2, #f8d24e)" d="M13.344 25.984c0 0.997-0.779 1.805-1.741 1.805s-1.741-0.808-1.741-1.805c0-0.997 0.779-1.805 1.741-1.805s1.741 0.808 1.741 1.805z"></path>
<path fill="#f8d24e" style="fill: var(--color2, #f8d24e)" d="M17.696 23.277c0 0.997-0.779 1.805-1.741 1.805s-1.741-0.808-1.741-1.805c0-0.997 0.779-1.805 1.741-1.805s1.741 0.808 1.741 1.805z"></path>
<path fill="#f8d24e" style="fill: var(--color2, #f8d24e)" d="M21.76 20.87c0 0.997-0.779 1.805-1.741 1.805s-1.741-0.808-1.741-1.805c0-0.997 0.779-1.805 1.741-1.805s1.741 0.808 1.741 1.805z"></path>
<path fill="#f8d24e" style="fill: var(--color2, #f8d24e)" d="M14.502 29.894c0 0.997-0.779 1.805-1.741 1.805s-1.741-0.808-1.741-1.805c0-0.997 0.779-1.805 1.741-1.805s1.741 0.808 1.741 1.805z"></path>
<path fill="#f8d24e" style="fill: var(--color2, #f8d24e)" d="M18.278 27.488c0 0.997-0.779 1.805-1.741 1.805s-1.741-0.808-1.741-1.805c0-0.997 0.779-1.805 1.741-1.805s1.741 0.808 1.741 1.805z"></path>
<path fill="#f8d24e" style="fill: var(--color2, #f8d24e)" d="M22.63 24.781c0 0.997-0.779 1.805-1.741 1.805s-1.741-0.808-1.741-1.805c0-0.997 0.779-1.805 1.741-1.805s1.741 0.808 1.741 1.805z"></path>
<path fill="#f8d24e" style="fill: var(--color2, #f8d24e)" d="M26.688 22.374c0 0.997-0.779 1.805-1.741 1.805s-1.741-0.808-1.741-1.805c0-0.997 0.779-1.805 1.741-1.805s1.741 0.808 1.741 1.805z"></path>
<path fill="#f8d24e" style="fill: var(--color2, #f8d24e)" d="M20.89 30.195c0 0.997-0.779 1.805-1.741 1.805s-1.741-0.808-1.741-1.805c0-0.997 0.779-1.805 1.741-1.805s1.741 0.808 1.741 1.805z"></path>
<path fill="#f8d24e" style="fill: var(--color2, #f8d24e)" d="M24.659 27.789c0 0.997-0.779 1.805-1.741 1.805s-1.741-0.808-1.741-1.805c0-0.997 0.779-1.805 1.741-1.805s1.741 0.808 1.741 1.805z"></path>
<path fill="#f8d24e" style="fill: var(--color2, #f8d24e)" d="M29.011 25.082c0 0.997-0.779 1.805-1.741 1.805s-1.741-0.808-1.741-1.805c0-0.997 0.779-1.805 1.741-1.805s1.741 0.808 1.741 1.805z"></path>
<path fill="#f8d24e" style="fill: var(--color2, #f8d24e)" d="M33.075 22.675c0 0.997-0.779 1.805-1.741 1.805s-1.741-0.808-1.741-1.805c0-0.997 0.779-1.805 1.741-1.805s1.741 0.808 1.741 1.805z"></path>
<path fill="#f8d24e" style="fill: var(--color2, #f8d24e)" d="M28.429 30.195c0 0.997-0.779 1.805-1.741 1.805s-1.741-0.808-1.741-1.805c0-0.997 0.779-1.805 1.741-1.805s1.741 0.808 1.741 1.805z"></path>
<path fill="#f8d24e" style="fill: var(--color2, #f8d24e)" d="M32.205 27.789c0 0.997-0.779 1.805-1.741 1.805s-1.741-0.808-1.741-1.805c0-0.997 0.779-1.805 1.741-1.805s1.741 0.808 1.741 1.805z"></path>
<path fill="#f8d24e" style="fill: var(--color2, #f8d24e)" d="M36.557 25.082c0 0.997-0.779 1.805-1.741 1.805s-1.741-0.808-1.741-1.805c0-0.997 0.779-1.805 1.741-1.805s1.741 0.808 1.741 1.805z"></path>
<path fill="#f8d24e" style="fill: var(--color2, #f8d24e)" d="M40.614 22.675c0 0.997-0.779 1.805-1.741 1.805s-1.741-0.808-1.741-1.805c0-0.997 0.779-1.805 1.741-1.805s1.741 0.808 1.741 1.805z"></path>
<path fill="#f8d24e" style="fill: var(--color2, #f8d24e)" d="M34.81 29.894c0 0.997-0.779 1.805-1.741 1.805s-1.741-0.808-1.741-1.805c0-0.997 0.779-1.805 1.741-1.805s1.741 0.808 1.741 1.805z"></path>
<path fill="#f8d24e" style="fill: var(--color2, #f8d24e)" d="M38.586 27.488c0 0.997-0.779 1.805-1.741 1.805s-1.741-0.808-1.741-1.805c0-0.997 0.779-1.805 1.741-1.805s1.741 0.808 1.741 1.805z"></path>
<path fill="#f8d24e" style="fill: var(--color2, #f8d24e)" d="M42.938 24.781c0 0.997-0.779 1.805-1.741 1.805s-1.741-0.808-1.741-1.805c0-0.997 0.779-1.805 1.741-1.805s1.741 0.808 1.741 1.805z"></path>
<path fill="#f8d24e" style="fill: var(--color2, #f8d24e)" d="M46.995 22.374c0 0.997-0.779 1.805-1.741 1.805s-1.741-0.808-1.741-1.805c0-0.997 0.779-1.805 1.741-1.805s1.741 0.808 1.741 1.805z"></path>
<path fill="#f8d24e" style="fill: var(--color2, #f8d24e)" d="M42.067 29.594c0 0.997-0.779 1.805-1.741 1.805s-1.741-0.808-1.741-1.805c0-0.997 0.779-1.805 1.741-1.805s1.741 0.808 1.741 1.805z"></path>
<path fill="#f8d24e" style="fill: var(--color2, #f8d24e)" d="M45.837 27.187c0 0.997-0.779 1.805-1.741 1.805s-1.741-0.808-1.741-1.805c0-0.997 0.779-1.805 1.741-1.805s1.741 0.808 1.741 1.805z"></path>
<path fill="#f8d24e" style="fill: var(--color2, #f8d24e)" d="M50.189 24.48c0 0.997-0.779 1.805-1.741 1.805s-1.741-0.808-1.741-1.805c0-0.997 0.779-1.805 1.741-1.805s1.741 0.808 1.741 1.805z"></path>
<path fill="#f8d24e" style="fill: var(--color2, #f8d24e)" d="M54.246 22.074c0 0.997-0.779 1.805-1.741 1.805s-1.741-0.808-1.741-1.805c0-0.997 0.779-1.805 1.741-1.805s1.741 0.808 1.741 1.805z"></path>
<path fill="#f8d24e" style="fill: var(--color2, #f8d24e)" d="M48.736 21.773c0 0.997-0.779 1.805-1.741 1.805s-1.741-0.808-1.741-1.805c0-0.997 0.779-1.805 1.741-1.805s1.741 0.808 1.741 1.805z"></path>
<path fill="#f8d24e" style="fill: var(--color2, #f8d24e)" d="M52.506 19.366c0 0.997-0.779 1.805-1.741 1.805s-1.741-0.808-1.741-1.805c0-0.997 0.779-1.805 1.741-1.805s1.741 0.808 1.741 1.805z"></path>
<path fill="#f8d24e" style="fill: var(--color2, #f8d24e)" d="M56.858 16.659c0 0.997-0.779 1.805-1.741 1.805s-1.741-0.808-1.741-1.805c0-0.997 0.779-1.805 1.741-1.805s1.741 0.808 1.741 1.805z"></path>
<path fill="#f8d24e" style="fill: var(--color2, #f8d24e)" d="M60.922 14.253c0 0.997-0.779 1.805-1.741 1.805s-1.741-0.808-1.741-1.805c0-0.997 0.779-1.805 1.741-1.805s1.741 0.808 1.741 1.805z"></path>
</symbol>
<symbol id="icon-dots-tablet" viewBox="0 0 356 32">
<path fill="#f8d24e" style="fill: var(--color2, #f8d24e)" d="M306.022 29.57c0 1.022-0.833 1.85-1.86 1.85s-1.86-0.828-1.86-1.85c0-1.022 0.833-1.85 1.86-1.85s1.86 0.828 1.86 1.85z"></path>
<path fill="#f8d24e" style="fill: var(--color2, #f8d24e)" d="M309.741 27.26c0 1.022-0.833 1.85-1.86 1.85s-1.86-0.828-1.86-1.85c0-1.022 0.833-1.85 1.86-1.85s1.86 0.828 1.86 1.85z"></path>
<path fill="#f8d24e" style="fill: var(--color2, #f8d24e)" d="M314.384 24.482c0 1.022-0.833 1.85-1.86 1.85s-1.86-0.828-1.86-1.85c0-1.022 0.833-1.85 1.86-1.85s1.86 0.828 1.86 1.85z"></path>
<path fill="#f8d24e" style="fill: var(--color2, #f8d24e)" d="M318.099 22.173c0 1.022-0.833 1.85-1.86 1.85s-1.86-0.828-1.86-1.85c0-1.022 0.833-1.85 1.86-1.85s1.86 0.828 1.86 1.85z"></path>
<path fill="#f8d24e" style="fill: var(--color2, #f8d24e)" d="M315.775 28.647c0 1.022-0.833 1.85-1.86 1.85s-1.86-0.828-1.86-1.85c0-1.022 0.833-1.85 1.86-1.85s1.86 0.828 1.86 1.85z"></path>
<path fill="#f8d24e" style="fill: var(--color2, #f8d24e)" d="M319.49 26.333c0 1.022-0.833 1.85-1.86 1.85s-1.86-0.828-1.86-1.85c0-1.022 0.833-1.85 1.86-1.85s1.86 0.828 1.86 1.85z"></path>
<path fill="#f8d24e" style="fill: var(--color2, #f8d24e)" d="M324.132 23.559c0 1.022-0.833 1.85-1.86 1.85s-1.86-0.828-1.86-1.85c0-1.022 0.833-1.85 1.86-1.85s1.86 0.828 1.86 1.85z"></path>
<path fill="#f8d24e" style="fill: var(--color2, #f8d24e)" d="M327.847 21.25c0 1.022-0.833 1.85-1.86 1.85s-1.86-0.828-1.86-1.85c0-1.022 0.833-1.85 1.86-1.85s1.86 0.828 1.86 1.85z"></path>
<path fill="#f8d24e" style="fill: var(--color2, #f8d24e)" d="M324.132 27.719c0 1.022-0.833 1.85-1.86 1.85s-1.86-0.828-1.86-1.85c0-1.022 0.833-1.85 1.86-1.85s1.86 0.828 1.86 1.85z"></path>
<path fill="#f8d24e" style="fill: var(--color2, #f8d24e)" d="M327.847 25.41c0 1.022-0.833 1.85-1.86 1.85s-1.86-0.828-1.86-1.85c0-1.022 0.833-1.85 1.86-1.85s1.86 0.828 1.86 1.85z"></path>
<path fill="#f8d24e" style="fill: var(--color2, #f8d24e)" d="M332.494 22.637c0 1.022-0.833 1.85-1.86 1.85s-1.86-0.828-1.86-1.85c0-1.022 0.833-1.85 1.86-1.85s1.86 0.828 1.86 1.85z"></path>
<path fill="#f8d24e" style="fill: var(--color2, #f8d24e)" d="M336.209 20.322c0 1.022-0.833 1.85-1.86 1.85s-1.86-0.828-1.86-1.85c0-1.022 0.833-1.85 1.86-1.85s1.86 0.828 1.86 1.85z"></path>
<path fill="#f8d24e" style="fill: var(--color2, #f8d24e)" d="M332.494 26.333c0 1.022-0.833 1.85-1.86 1.85s-1.86-0.828-1.86-1.85c0-1.022 0.833-1.85 1.86-1.85s1.86 0.828 1.86 1.85z"></path>
<path fill="#f8d24e" style="fill: var(--color2, #f8d24e)" d="M336.209 24.023c0 1.022-0.833 1.85-1.86 1.85s-1.86-0.828-1.86-1.85c0-1.022 0.833-1.85 1.86-1.85s1.86 0.828 1.86 1.85z"></path>
<path fill="#f8d24e" style="fill: var(--color2, #f8d24e)" d="M340.851 21.25c0 1.022-0.833 1.85-1.86 1.85s-1.86-0.828-1.86-1.85c0-1.022 0.833-1.85 1.86-1.85s1.86 0.828 1.86 1.85z"></path>
<path fill="#f8d24e" style="fill: var(--color2, #f8d24e)" d="M344.566 18.936c0 1.022-0.833 1.85-1.86 1.85s-1.86-0.828-1.86-1.85c0-1.022 0.833-1.85 1.86-1.85s1.86 0.828 1.86 1.85z"></path>
<path fill="#f8d24e" style="fill: var(--color2, #f8d24e)" d="M334.813 29.57c0 1.022-0.833 1.85-1.86 1.85s-1.86-0.828-1.86-1.85c0-1.022 0.833-1.85 1.86-1.85s1.86 0.828 1.86 1.85z"></path>
<path fill="#f8d24e" style="fill: var(--color2, #f8d24e)" d="M338.532 27.26c0 1.022-0.833 1.85-1.86 1.85s-1.86-0.828-1.86-1.85c0-1.022 0.833-1.85 1.86-1.85s1.86 0.828 1.86 1.85z"></path>
<path fill="#f8d24e" style="fill: var(--color2, #f8d24e)" d="M343.638 30.034c0 1.022-0.833 1.85-1.86 1.85s-1.86-0.828-1.86-1.85c0-1.022 0.833-1.85 1.86-1.85s1.86 0.828 1.86 1.85z"></path>
<path fill="#f8d24e" style="fill: var(--color2, #f8d24e)" d="M343.175 24.482c0 1.022-0.833 1.85-1.86 1.85s-1.86-0.828-1.86-1.85c0-1.022 0.833-1.85 1.86-1.85s1.86 0.828 1.86 1.85z"></path>
<path fill="#f8d24e" style="fill: var(--color2, #f8d24e)" d="M348.281 27.26c0 1.022-0.833 1.85-1.86 1.85s-1.86-0.828-1.86-1.85c0-1.022 0.833-1.85 1.86-1.85s1.86 0.828 1.86 1.85z"></path>
<path fill="#f8d24e" style="fill: var(--color2, #f8d24e)" d="M352.459 30.034c0 1.022-0.833 1.85-1.86 1.85s-1.86-0.828-1.86-1.85c0-1.022 0.833-1.85 1.86-1.85s1.86 0.828 1.86 1.85z"></path>
<path fill="#f8d24e" style="fill: var(--color2, #f8d24e)" d="M346.889 22.173c0 1.022-0.833 1.85-1.86 1.85s-1.86-0.828-1.86-1.85c0-1.022 0.833-1.85 1.86-1.85s1.86 0.828 1.86 1.85z"></path>
<path fill="#f8d24e" style="fill: var(--color2, #f8d24e)" d="M352.459 24.946c0 1.022-0.833 1.85-1.86 1.85s-1.86-0.828-1.86-1.85c0-1.022 0.833-1.85 1.86-1.85s1.86 0.828 1.86 1.85z"></path>
<path fill="#f8d24e" style="fill: var(--color2, #f8d24e)" d="M356.179 27.719c0 1.022-0.833 1.85-1.86 1.85s-1.86-0.828-1.86-1.85c0-1.022 0.833-1.85 1.86-1.85s1.86 0.828 1.86 1.85z"></path>
<path fill="#f8d24e" style="fill: var(--color2, #f8d24e)" d="M288.376 10.152c0 1.022-0.833 1.85-1.86 1.85s-1.86-0.828-1.86-1.85c0-1.022 0.833-1.85 1.86-1.85s1.86 0.828 1.86 1.85z"></path>
<path fill="#f8d24e" style="fill: var(--color2, #f8d24e)" d="M292.095 7.838c0 1.022-0.833 1.85-1.86 1.85s-1.86-0.828-1.86-1.85c0-1.022 0.833-1.85 1.86-1.85s1.86 0.828 1.86 1.85z"></path>
<path fill="#f8d24e" style="fill: var(--color2, #f8d24e)" d="M296.737 5.064c0 1.022-0.833 1.85-1.86 1.85s-1.86-0.828-1.86-1.85c0-1.022 0.833-1.85 1.86-1.85s1.86 0.828 1.86 1.85z"></path>
<path fill="#f8d24e" style="fill: var(--color2, #f8d24e)" d="M300.452 2.755c0 1.022-0.833 1.85-1.86 1.85s-1.86-0.828-1.86-1.85c0-1.022 0.833-1.85 1.86-1.85s1.86 0.828 1.86 1.85z"></path>
<path fill="#f8d24e" style="fill: var(--color2, #f8d24e)" d="M280.946 9.688c0 1.022-0.833 1.85-1.86 1.85s-1.86-0.828-1.86-1.85c0-1.022 0.833-1.85 1.86-1.85s1.86 0.828 1.86 1.85z"></path>
<path fill="#f8d24e" style="fill: var(--color2, #f8d24e)" d="M284.661 7.379c0 1.022-0.833 1.85-1.86 1.85s-1.86-0.828-1.86-1.85c0-1.022 0.833-1.85 1.86-1.85s1.86 0.828 1.86 1.85z"></path>
<path fill="#f8d24e" style="fill: var(--color2, #f8d24e)" d="M289.308 4.601c0 1.022-0.833 1.85-1.86 1.85s-1.86-0.828-1.86-1.85c0-1.022 0.833-1.85 1.86-1.85s1.86 0.828 1.86 1.85z"></path>
<path fill="#f8d24e" style="fill: var(--color2, #f8d24e)" d="M293.023 2.291c0 1.022-0.833 1.85-1.86 1.85s-1.86-0.828-1.86-1.85c0-1.022 0.833-1.85 1.86-1.85s1.86 0.828 1.86 1.85z"></path>
<path fill="#f8d24e" style="fill: var(--color2, #f8d24e)" d="M297.201 29.57c0 1.022-0.833 1.85-1.86 1.85s-1.86-0.828-1.86-1.85c0-1.022 0.833-1.85 1.86-1.85s1.86 0.828 1.86 1.85z"></path>
<path fill="#f8d24e" style="fill: var(--color2, #f8d24e)" d="M300.916 27.26c0 1.022-0.833 1.85-1.86 1.85s-1.86-0.828-1.86-1.85c0-1.022 0.833-1.85 1.86-1.85s1.86 0.828 1.86 1.85z"></path>
<path fill="#f8d24e" style="fill: var(--color2, #f8d24e)" d="M305.558 24.482c0 1.022-0.833 1.85-1.86 1.85s-1.86-0.828-1.86-1.85c0-1.022 0.833-1.85 1.86-1.85s1.86 0.828 1.86 1.85z"></path>
<path fill="#f8d24e" style="fill: var(--color2, #f8d24e)" d="M309.273 22.173c0 1.022-0.833 1.85-1.86 1.85s-1.86-0.828-1.86-1.85c0-1.022 0.833-1.85 1.86-1.85s1.86 0.828 1.86 1.85z"></path>
<path fill="#f8d24e" style="fill: var(--color2, #f8d24e)" d="M292.559 28.183c0 1.022-0.833 1.85-1.86 1.85s-1.86-0.828-1.86-1.85c0-1.022 0.833-1.85 1.86-1.85s1.86 0.828 1.86 1.85z"></path>
<path fill="#f8d24e" style="fill: var(--color2, #f8d24e)" d="M296.274 25.874c0 1.022-0.833 1.85-1.86 1.85s-1.86-0.828-1.86-1.85c0-1.022 0.833-1.85 1.86-1.85s1.86 0.828 1.86 1.85z"></path>
<path fill="#f8d24e" style="fill: var(--color2, #f8d24e)" d="M300.916 23.096c0 1.022-0.833 1.85-1.86 1.85s-1.86-0.828-1.86-1.85c0-1.022 0.833-1.85 1.86-1.85s1.86 0.828 1.86 1.85z"></path>
<path fill="#f8d24e" style="fill: var(--color2, #f8d24e)" d="M304.631 20.786c0 1.022-0.833 1.85-1.86 1.85s-1.86-0.828-1.86-1.85c0-1.022 0.833-1.85 1.86-1.85s1.86 0.828 1.86 1.85z"></path>
<path fill="#f8d24e" style="fill: var(--color2, #f8d24e)" d="M294.414 21.709c0 1.022-0.833 1.85-1.86 1.85s-1.86-0.828-1.86-1.85c0-1.022 0.833-1.85 1.86-1.85s1.86 0.828 1.86 1.85z"></path>
<path fill="#f8d24e" style="fill: var(--color2, #f8d24e)" d="M298.129 19.399c0 1.022-0.833 1.85-1.86 1.85s-1.86-0.828-1.86-1.85c0-1.022 0.833-1.85 1.86-1.85s1.86 0.828 1.86 1.85z"></path>
<path fill="#f8d24e" style="fill: var(--color2, #f8d24e)" d="M302.776 16.626c0 1.022-0.833 1.85-1.86 1.85s-1.86-0.828-1.86-1.85c0-1.022 0.833-1.85 1.86-1.85s1.86 0.828 1.86 1.85z"></path>
<path fill="#f8d24e" style="fill: var(--color2, #f8d24e)" d="M306.49 14.312c0 1.022-0.833 1.85-1.86 1.85s-1.86-0.828-1.86-1.85c0-1.022 0.833-1.85 1.86-1.85s1.86 0.828 1.86 1.85z"></path>
<path fill="#f8d24e" style="fill: var(--color2, #f8d24e)" d="M294.414 11.075c0 1.022-0.833 1.85-1.86 1.85s-1.86-0.828-1.86-1.85c0-1.022 0.833-1.85 1.86-1.85s1.86 0.828 1.86 1.85z"></path>
<path fill="#f8d24e" style="fill: var(--color2, #f8d24e)" d="M298.129 8.765c0 1.022-0.833 1.85-1.86 1.85s-1.86-0.828-1.86-1.85c0-1.022 0.833-1.85 1.86-1.85s1.86 0.828 1.86 1.85z"></path>
<path fill="#f8d24e" style="fill: var(--color2, #f8d24e)" d="M302.776 5.992c0 1.022-0.833 1.85-1.86 1.85s-1.86-0.828-1.86-1.85c0-1.022 0.833-1.85 1.86-1.85s1.86 0.828 1.86 1.85z"></path>
<path fill="#f8d24e" style="fill: var(--color2, #f8d24e)" d="M306.49 3.678c0 1.022-0.833 1.85-1.86 1.85s-1.86-0.828-1.86-1.85c0-1.022 0.833-1.85 1.86-1.85s1.86 0.828 1.86 1.85z"></path>
<path fill="#f8d24e" style="fill: var(--color2, #f8d24e)" d="M293.486 17.085c0 1.022-0.833 1.85-1.86 1.85s-1.86-0.828-1.86-1.85c0-1.022 0.833-1.85 1.86-1.85s1.86 0.828 1.86 1.85z"></path>
<path fill="#f8d24e" style="fill: var(--color2, #f8d24e)" d="M297.201 14.776c0 1.022-0.833 1.85-1.86 1.85s-1.86-0.828-1.86-1.85c0-1.022 0.833-1.85 1.86-1.85s1.86 0.828 1.86 1.85z"></path>
<path fill="#f8d24e" style="fill: var(--color2, #f8d24e)" d="M301.843 12.002c0 1.022-0.833 1.85-1.86 1.85s-1.86-0.828-1.86-1.85c0-1.022 0.833-1.85 1.86-1.85s1.86 0.828 1.86 1.85z"></path>
<path fill="#f8d24e" style="fill: var(--color2, #f8d24e)" d="M305.558 9.688c0 1.022-0.833 1.85-1.86 1.85s-1.86-0.828-1.86-1.85c0-1.022 0.833-1.85 1.86-1.85s1.86 0.828 1.86 1.85z"></path>
<path fill="#f8d24e" style="fill: var(--color2, #f8d24e)" d="M274.908 8.301c0 1.022-0.727 1.85-1.623 1.85s-1.623-0.828-1.623-1.85c0-1.022 0.727-1.85 1.623-1.85s1.623 0.828 1.623 1.85z"></path>
<path fill="#f8d24e" style="fill: var(--color2, #f8d24e)" d="M278.623 5.992c0 1.022-0.727 1.85-1.623 1.85s-1.623-0.828-1.623-1.85c0-1.022 0.727-1.85 1.623-1.85s1.623 0.828 1.623 1.85z"></path>
<path fill="#f8d24e" style="fill: var(--color2, #f8d24e)" d="M283.265 3.214c0 1.022-0.727 1.85-1.623 1.85s-1.623-0.828-1.623-1.85c0-1.022 0.727-1.85 1.623-1.85s1.623 0.828 1.623 1.85z"></path>
<path fill="#f8d24e" style="fill: var(--color2, #f8d24e)" d="M281.178 10.152c0.9 0 1.623-0.83 1.623-1.85s-0.723-1.85-1.623-1.85-1.623 0.83-1.623 1.85 0.723 1.85 1.623 1.85z"></path>
<path fill="#f8d24e" style="fill: var(--color2, #f8d24e)" d="M3.719 27.362c0 1.025-0.833 1.855-1.86 1.855s-1.86-0.831-1.86-1.855c0-1.025 0.833-1.855 1.86-1.855s1.86 0.831 1.86 1.855z"></path>
<path fill="#f8d24e" style="fill: var(--color2, #f8d24e)" d="M7.434 25.043c0 1.025-0.833 1.855-1.86 1.855s-1.86-0.831-1.86-1.855c0-1.025 0.833-1.855 1.86-1.855s1.86 0.831 1.86 1.855z"></path>
<path fill="#f8d24e" style="fill: var(--color2, #f8d24e)" d="M12.077 22.261c0 1.025-0.833 1.855-1.86 1.855s-1.86-0.831-1.86-1.855c0-1.025 0.833-1.855 1.86-1.855s1.86 0.831 1.86 1.855z"></path>
<path fill="#f8d24e" style="fill: var(--color2, #f8d24e)" d="M15.791 19.942c0 1.025-0.833 1.855-1.86 1.855s-1.86-0.831-1.86-1.855c0-1.025 0.833-1.855 1.86-1.855s1.86 0.831 1.86 1.855z"></path>
<path fill="#f8d24e" style="fill: var(--color2, #f8d24e)" d="M26.008 28.29c0 1.025-0.833 1.855-1.86 1.855s-1.86-0.831-1.86-1.855c0-1.025 0.833-1.855 1.86-1.855s1.86 0.831 1.86 1.855z"></path>
<path fill="#f8d24e" style="fill: var(--color2, #f8d24e)" d="M29.723 25.971c0 1.025-0.833 1.855-1.86 1.855s-1.86-0.831-1.86-1.855c0-1.025 0.833-1.855 1.86-1.855s1.86 0.831 1.86 1.855z"></path>
<path fill="#f8d24e" style="fill: var(--color2, #f8d24e)" d="M34.365 23.188c0 1.025-0.833 1.855-1.86 1.855s-1.86-0.831-1.86-1.855c0-1.025 0.833-1.855 1.86-1.855s1.86 0.831 1.86 1.855z"></path>
<path fill="#f8d24e" style="fill: var(--color2, #f8d24e)" d="M38.080 20.87c0 1.025-0.833 1.855-1.86 1.855s-1.86-0.831-1.86-1.855c0-1.025 0.833-1.855 1.86-1.855s1.86 0.831 1.86 1.855z"></path>
<path fill="#f8d24e" style="fill: var(--color2, #f8d24e)" d="M34.361 26.899c0 1.025-0.727 1.855-1.623 1.855s-1.623-0.831-1.623-1.855c0-1.025 0.727-1.855 1.623-1.855s1.623 0.831 1.623 1.855z"></path>
<path fill="#f8d24e" style="fill: var(--color2, #f8d24e)" d="M38.075 24.58c0 1.025-0.727 1.855-1.623 1.855s-1.623-0.831-1.623-1.855c0-1.025 0.727-1.855 1.623-1.855s1.623 0.831 1.623 1.855z"></path>
<path fill="#f8d24e" style="fill: var(--color2, #f8d24e)" d="M42.254 22.261c0 1.025-0.727 1.855-1.623 1.855s-1.623-0.831-1.623-1.855c0-1.025 0.727-1.855 1.623-1.855s1.623 0.831 1.623 1.855z"></path>
<path fill="#f8d24e" style="fill: var(--color2, #f8d24e)" d="M46.437 19.942c0 1.025-0.727 1.855-1.623 1.855s-1.623-0.831-1.623-1.855c0-1.025 0.727-1.855 1.623-1.855s1.623 0.831 1.623 1.855z"></path>
<path fill="#f8d24e" style="fill: var(--color2, #f8d24e)" d="M51.079 16.232c0 1.025-0.727 1.855-1.623 1.855s-1.623-0.831-1.623-1.855c0-1.025 0.727-1.855 1.623-1.855s1.623 0.831 1.623 1.855z"></path>
<path fill="#f8d24e" style="fill: var(--color2, #f8d24e)" d="M41.326 18.087c0 1.025-0.727 1.855-1.623 1.855s-1.623-0.831-1.623-1.855c0-1.025 0.727-1.855 1.623-1.855s1.623 0.831 1.623 1.855z"></path>
<path fill="#f8d24e" style="fill: var(--color2, #f8d24e)" d="M17.646 28.29c0 1.025-0.833 1.855-1.86 1.855s-1.86-0.831-1.86-1.855c0-1.025 0.833-1.855 1.86-1.855s1.86 0.831 1.86 1.855z"></path>
<path fill="#f8d24e" style="fill: var(--color2, #f8d24e)" d="M21.361 25.971c0 1.025-0.833 1.855-1.86 1.855s-1.86-0.831-1.86-1.855c0-1.025 0.833-1.855 1.86-1.855s1.86 0.831 1.86 1.855z"></path>
<path fill="#f8d24e" style="fill: var(--color2, #f8d24e)" d="M26.008 23.188c0 1.025-0.833 1.855-1.86 1.855s-1.86-0.831-1.86-1.855c0-1.025 0.833-1.855 1.86-1.855s1.86 0.831 1.86 1.855z"></path>
<path fill="#f8d24e" style="fill: var(--color2, #f8d24e)" d="M29.723 20.87c0 1.025-0.833 1.855-1.86 1.855s-1.86-0.831-1.86-1.855c0-1.025 0.833-1.855 1.86-1.855s1.86 0.831 1.86 1.855z"></path>
<path fill="#f8d24e" style="fill: var(--color2, #f8d24e)" d="M10.217 27.826c0 1.025-0.833 1.855-1.86 1.855s-1.86-0.831-1.86-1.855c0-1.025 0.833-1.855 1.86-1.855s1.86 0.831 1.86 1.855z"></path>
<path fill="#f8d24e" style="fill: var(--color2, #f8d24e)" d="M13.932 25.507c0 1.025-0.833 1.855-1.86 1.855s-1.86-0.831-1.86-1.855c0-1.025 0.833-1.855 1.86-1.855s1.86 0.831 1.86 1.855z"></path>
<path fill="#f8d24e" style="fill: var(--color2, #f8d24e)" d="M18.579 22.725c0 1.025-0.833 1.855-1.86 1.855s-1.86-0.831-1.86-1.855c0-1.025 0.833-1.855 1.86-1.855s1.86 0.831 1.86 1.855z"></path>
<path fill="#f8d24e" style="fill: var(--color2, #f8d24e)" d="M22.293 20.406c0 1.025-0.833 1.855-1.86 1.855s-1.86-0.831-1.86-1.855c0-1.025 0.833-1.855 1.86-1.855s1.86 0.831 1.86 1.855z"></path>
</symbol>







<!-- PRODUCTS SECTIOM -->
<symbol id="icon-arrow" viewBox="0 0 82 32">
<path d="M81.4 17.4c0.354-0.36 0.572-0.855 0.572-1.4s-0.218-1.040-0.572-1.4l0 0-12.7-12.76c-0.369-0.429-0.912-0.699-1.519-0.699-1.105 0-2 0.895-2 2 0 0.607 0.27 1.15 0.696 1.517l0.003 0.002 11.3 11.34-11.32 11.32c-0.299 0.347-0.481 0.803-0.481 1.301 0 1.105 0.895 2 2 2 0.498 0 0.953-0.182 1.304-0.483l-0.003 0.002 12.74-12.72zM0 18h80v-4h-80v4z"></path>
</symbol>




<!-- ABOUT SECTION -->
<symbol id="icon-cow" viewBox="0 0 31 32">
<path d="M6.002 0.778c-0.259 0.216-0.977 1.73-1.237 2.56-0.248 0.731-0.391 1.572-0.391 2.447 0 0.143 0.004 0.285 0.011 0.426l-0.001-0.020c0.061 1.514 0.432 2.655 1.28 3.857 0.216 0.311 0.389 0.588 0.389 0.605-1.242 0.047-2.416 0.259-3.527 0.614l0.093-0.026c-1.635 0.493-2.621 1.367-2.621 2.335 0 0.346 0.311 0.934 0.64 1.228 0.64 0.579 2.041 1.124 3.546 1.384 0.519 0.104 2.076 0.259 2.422 0.268 0.061 0 0.087 0.346 0.087 1.444 0 0.951 0.035 1.686 0.104 2.145 0.259 1.617 1.038 3.338 2.084 4.549l0.363 0.415-0.242 0.389c-0.346 0.553-0.484 0.969-0.528 1.591-0.104 1.488 0.822 2.811 2.621 3.745 3.425 1.773 8.735 1.081 10.733-1.41 0.969-1.211 1.090-2.595 0.32-3.857l-0.242-0.389 0.432-0.519c0.747-0.886 1.333-1.935 1.695-3.084l0.017-0.064c0.337-1.038 0.458-2.041 0.458-3.632 0-0.718 0.026-1.323 0.061-1.323 0.32 0 1.877-0.173 2.37-0.259 1.522-0.259 2.889-0.804 3.546-1.384 0.346-0.303 0.649-0.891 0.649-1.237 0-1.081-1.098-1.955-3.139-2.482-0.675-0.173-1.929-0.389-2.543-0.432l-0.294-0.017 0.32-0.432c0.445-0.646 0.812-1.392 1.065-2.189l0.016-0.060c0.528-1.972 0.199-4.264-0.951-6.452-0.476-0.908-0.804-1.116-1.194-0.761-0.147 0.138-0.208 0.329-0.346 1.021-0.34 2.014-1.209 3.782-2.458 5.21l0.010-0.012-0.519 0.571h-11.139l-0.45-0.502c-1.226-1.447-2.087-3.239-2.421-5.211l-0.009-0.064c-0.147-0.683-0.208-0.865-0.355-1.012-0.242-0.208-0.467-0.199-0.726 0.026zM6.902 5.103c0.372 0.822 0.839 1.591 1.384 2.301l0.441 0.562-0.458 0.346c-0.432 0.329-0.83 0.796-1.142 1.323l-0.13 0.242-0.346-0.458c-0.718-0.996-1.149-2.241-1.149-3.587 0-0.71 0.12-1.391 0.34-2.026l-0.013 0.043c0.294-0.977 0.285-0.977 0.553-0.13 0.13 0.415 0.363 1.038 0.519 1.384zM25.237 3.563c0.294 0.865 0.407 1.557 0.407 2.465 0 1.332-0.355 2.456-1.098 3.459l-0.329 0.458-0.242-0.415c-0.294-0.519-0.778-1.046-1.237-1.358-0.128-0.076-0.239-0.162-0.337-0.26l0 0c1.029-1.158 1.829-2.544 2.313-4.071l0.022-0.080c0.13-0.415 0.259-0.761 0.277-0.761 0.026 0 0.13 0.259 0.225 0.562zM21.639 8.908c0.828 0.405 1.435 1.154 1.639 2.055l0.004 0.020c0.069 0.432 0.216 0.709 0.407 0.752 0.087 0.017 0.666 0.069 1.297 0.112 2.223 0.147 3.978 0.623 4.722 1.271 0.346 0.303 0.311 0.562-0.104 0.873-0.83 0.631-2.629 1.107-4.454 1.185-1.211 0.052-1.47 0.086-1.626 0.259-0.121 0.121-0.138 0.259-0.138 1.574 0 1.799-0.087 2.828-0.32 3.658-0.354 1.231-0.927 2.3-1.681 3.215l0.012-0.015-0.303 0.346-0.631-0.372c-0.669-0.415-1.446-0.74-2.274-0.932l-0.053-0.010c-2.664-0.64-5.622-0.251-7.611 1.003l-0.45 0.294-0.294-0.346c-0.466-0.583-0.883-1.242-1.226-1.944l-0.028-0.063c-0.545-1.254-0.709-2.283-0.709-4.532 0-2.188 0.112-2.024-1.505-2.11-2.076-0.112-3.65-0.484-4.644-1.116-0.735-0.467-0.605-0.882 0.406-1.375 0.977-0.476 2.326-0.761 4.195-0.873 1.453-0.095 1.488-0.121 1.617-0.822 0.196-1.056 0.952-1.896 1.943-2.209l0.020-0.005c0.251-0.069 1.635-0.086 5.855-0.086l5.535 0.017 0.398 0.173zM17.678 24.043c1.73 0.424 3.018 1.211 3.572 2.197 0.138 0.225 0.19 0.458 0.225 0.813 0.026 0.45 0 0.553-0.173 0.925-0.778 1.661-3.65 2.75-6.573 2.508-3.511-0.294-5.829-2.249-4.912-4.177 0.493-1.038 2.162-2.032 3.918-2.326 0.294-0.043 0.579-0.087 0.64-0.112 0.184-0.006 0.401-0.010 0.619-0.010 0.947 0 1.878 0.066 2.79 0.195l-0.105-0.012z"></path>
<path d="M10.69 12.575c-0.432 0.147-0.726 0.346-1.124 0.735-0.346 0.329-0.372 0.718-0.086 0.951 0.268 0.216 0.519 0.19 0.848-0.095 0.406-0.363 0.726-0.502 1.124-0.502 0.389-0.009 0.692 0.13 1.116 0.502 0.329 0.285 0.579 0.311 0.848 0.086 0.138-0.112 0.182-0.208 0.182-0.424 0-0.225-0.052-0.329-0.294-0.579-0.692-0.692-1.73-0.969-2.612-0.675zM18.906 12.575c-0.45 0.164-1.029 0.545-1.263 0.83-0.225 0.277-0.233 0.588 0 0.822 0.233 0.259 0.519 0.242 0.856-0.043 0.83-0.692 1.453-0.709 2.214-0.069 0.199 0.173 0.432 0.303 0.493 0.303 0.346 0 0.631-0.311 0.631-0.675 0-0.233-0.588-0.778-1.116-1.038-0.311-0.157-0.678-0.25-1.067-0.25-0.268 0-0.526 0.044-0.767 0.125l0.017-0.005zM11.71 26.102c-0.199 0.199-0.268 0.484-0.173 0.709 0.086 0.19 0.208 0.259 0.692 0.389 0.216 0.061 0.311 0.13 0.389 0.32 0.095 0.242 0.104 0.242 0.649 0.259l0.536 0.026v-0.208c0-0.294-0.173-0.718-0.381-1.012-0.277-0.346-0.688-0.575-1.154-0.605l-0.005-0c-0.329-0.017-0.415 0-0.553 0.121zM18.439 26.058c-0.346 0.087-0.856 0.562-0.995 0.943-0.069 0.164-0.13 0.467-0.138 0.657-0.009 0.32 0.017 0.389 0.182 0.545 0.415 0.363 0.969 0.087 0.969-0.502 0-0.285 0.208-0.484 0.588-0.562 0.389-0.069 0.528-0.233 0.536-0.605 0-0.484-0.432-0.675-1.142-0.476z"></path>
</symbol>
<symbol id="icon-weight" viewBox="0 0 32 32">
<path d="M14.178 0.551c-3.973 0.587-7.244 2.791-8.444 5.689-0.318 0.682-0.503 1.481-0.503 2.324 0 0.086 0.002 0.172 0.006 0.257l-0-0.012c0.009 0.809 0.044 1.111 0.169 1.547 0.258 0.862 0.444 1.307 0.827 1.92l0.356 0.578-0.4 0.489c-1.638 2.042-2.629 4.664-2.629 7.517 0 2.318 0.654 4.484 1.787 6.322l-0.030-0.052c0.978 1.636 2.578 3.236 4.151 4.178l0.462 0.267 6.364-0.044 6.382-0.062 0.302-0.169c1.311-0.829 2.427-1.826 3.358-2.979l0.020-0.026c1.262-1.636 2.080-3.547 2.427-5.618 0.116-0.738 0.116-2.933 0-3.627-0.363-2.152-1.233-4.055-2.482-5.645l0.020 0.027c-0.146-0.175-0.29-0.369-0.421-0.572l-0.014-0.024 0.293-0.489c0.356-0.569 0.684-1.316 0.862-1.956 0.196-0.72 0.196-2.524 0-3.236-0.711-2.551-2.844-4.684-5.849-5.858-0.836-0.329-2.276-0.676-3.209-0.8-0.862-0.089-2.996-0.071-3.804 0.053zM18.667 1.716c3.947 0.773 6.836 3.191 7.369 6.16 0.116 0.667 0.044 1.804-0.16 2.436-0.196 0.622-0.569 1.351-1.004 1.964-0.178 0.249-0.32 0.533-0.32 0.631 0 0.089 0.151 0.338 0.373 0.587 1.849 2.044 2.818 4.613 2.818 7.387 0 3.156-1.218 5.92-3.556 8.089-0.391 0.382-0.96 0.844-1.262 1.049l-0.56 0.373-12.204 0.044-0.48-0.302c-3.045-1.997-5.027-5.394-5.027-9.254 0-2.733 0.994-5.234 2.64-7.161l-0.013 0.015c0.391-0.453 0.569-0.729 0.569-0.862 0-0.107-0.187-0.462-0.444-0.827-0.676-0.916-1.081-2.067-1.081-3.313 0-0.264 0.018-0.524 0.053-0.778l-0.003 0.029c0.249-1.445 0.965-2.69 1.985-3.604l0.006-0.005c1.608-1.474 3.676-2.471 5.966-2.75l0.052-0.005c1.013-0.151 3.253-0.089 4.284 0.098z"></path>
<path d="M14.507 2.987c-3.022 0.489-5.396 2.178-6.169 4.382-0.178 0.498-0.213 0.684-0.213 1.404 0 0.711 0.036 0.898 0.213 1.396 0.107 0.32 0.311 0.756 0.453 0.978 0.382 0.622 0.551 0.64 1.316 0.178 1.094-0.673 2.368-1.187 3.727-1.471l0.078-0.014c0.916-0.187 2.667-0.267 3.671-0.142 1.556 0.178 3.253 0.738 4.604 1.538 0.382 0.222 0.773 0.409 0.871 0.409 0.56 0 1.28-1.618 1.28-2.871 0-2.8-2.676-5.191-6.471-5.787-0.8-0.133-2.578-0.133-3.36 0zM18.169 4.133c1.271 0.267 2.436 0.791 3.316 1.476 1.182 0.907 1.813 2.187 1.716 3.413-0.044 0.489-0.222 1.156-0.338 1.218-0.027 0.018-0.444-0.151-0.916-0.382-0.978-0.48-2.098-0.862-3.227-1.102-0.684-0.142-0.978-0.169-2.516-0.16-1.511 0-1.831 0.027-2.489 0.16-1.138 0.24-2.018 0.542-3.111 1.067-1.102 0.524-1.040 0.533-1.244-0.116-0.258-0.844-0.089-1.956 0.409-2.8 0.426-0.607 0.932-1.121 1.51-1.543l0.019-0.013c1.013-0.693 1.893-1.013 3.804-1.351 0.391-0.071 2.56 0.027 3.067 0.133zM16.96 13.404c-0.204 0.267-0.204 0.507 0.009 0.711 0.142 0.133 0.284 0.178 0.791 0.213 0.987 0.071 1.938 0.356 2.782 0.844 0.765 0.507 1.41 1.124 1.932 1.837l0.015 0.021c0.596 0.882 0.973 1.956 1.031 3.114l0.001 0.015c0 0.329 0.036 0.436 0.187 0.578 0.24 0.24 0.551 0.24 0.773 0 0.169-0.169 0.178-0.213 0.124-0.916-0.303-3.559-3.161-6.362-6.718-6.577l-0.020-0.001-0.738-0.044-0.169 0.204z"></path>
</symbol>
<symbol id="icon-ice-crema" viewBox="0 0 32 32">
<path d="M16.107 0.107c0.089 0.213 0.24 1.244 0.24 1.573 0 0.8-0.293 1.538-0.836 2.124-0.444 0.48-0.889 0.747-1.973 1.182-0.879 0.288-1.634 0.745-2.261 1.336l0.003-0.003c-0.525 0.501-0.892 1.164-1.019 1.909l-0.003 0.020c-0.133 0.8 0 1.36 0.409 1.68l0.204 0.16-0.329 0.204c-0.658 0.444-1.867 1.467-2.071 1.778-0.4 0.604-0.356 1.156 0.089 1.396l0.222 0.107-0.249 0.222c-0.356 0.347-0.436 0.578-0.382 1.191 0.036 0.409 0.027 0.631-0.071 0.969-0.116 0.436-0.116 0.444 0.036 0.747s0.56 0.684 0.933 0.844c0.178 0.080 0.187 0.107 0.231 0.72l0.080 2.516c0.018 1.031 0.071 1.982 0.107 2.089 0.057 0.149 0.152 0.273 0.273 0.363l0.002 0.002c0.391 0.267 0.658 0.56 0.827 0.889 0.196 0.382 0.409 1.324 1.067 4.56l0.444 2.276 0.284 0.267c0.533 0.533 1.564 0.773 3.244 0.773 1.698 0 2.711-0.231 3.244-0.764l0.284-0.267 0.418-2.116c0.916-4.613 0.996-4.871 1.716-5.44 0.222-0.178 0.436-0.4 0.471-0.498 0.053-0.116 0.089-0.987 0.133-2.311 0.027-1.182 0.062-2.347 0.089-2.596l0.044-0.444 0.436-0.329c0.542-0.427 0.764-0.8 0.764-1.396-0.009-0.693-0.462-1.458-1.298-2.142l-0.391-0.32 0.196-0.276c0.8-1.12 0.293-2.667-1.209-3.698l-0.453-0.311 0.169-0.178c0.738-0.8 0.862-3.173 0.24-4.827-0.512-1.159-1.292-2.118-2.265-2.831l-0.019-0.014c-0.595-0.437-1.271-0.85-1.98-1.207l-0.082-0.037c-0.027 0-0.027 0.044 0 0.107zM18.036 2.444c0.356 0.356 0.782 0.827 0.951 1.067 0.996 1.387 1.244 3.138 0.649 4.418-0.416 0.713-0.965 1.305-1.618 1.757l-0.018 0.012c-1.022 0.711-3.324 1.893-4.933 2.551-2.578 1.049-4.089 1.253-4.258 0.569-0.062-0.267 0.133-0.471 0.951-1.022 0.747-0.507 4.080-2.987 4.142-3.084-0.296 0.106-0.545 0.22-0.783 0.352l0.027-0.014c-1.449 0.738-2.133 0.596-2.107-0.427 0.018-0.747 0.56-1.582 1.298-2.071 0.187-0.116 0.773-0.382 1.307-0.596 1.76-0.711 2.293-1.076 2.889-1.964 0.411-0.623 0.703-1.362 0.823-2.157l0.004-0.030c0.018 0 0.32 0.293 0.676 0.64zM19.867 10.044c0.489 0.276 0.996 0.747 1.218 1.111 0.382 0.667 0.178 1.333-0.649 2.169-1.157 1.057-2.555 1.872-4.101 2.353l-0.077 0.021c-1.564 0.516-3.076 0.756-5.227 0.827l-1.342 0.053 0.871 0.053c1.12 0.071 3.298 0 4.142-0.133 2.078-0.275 3.945-1 5.559-2.074l-0.048 0.030c0.311-0.213 0.631-0.391 0.72-0.391 0.222 0 1.191 0.924 1.378 1.307 0.107 0.222 0.133 0.382 0.116 0.596-0.098 0.889-1.182 1.369-3.804 1.689-3.2 0.373-7.378 0-9.164-0.827-0.844-0.382-0.987-0.604-0.773-1.191 0.062-0.196 0.080-0.409 0.053-0.729-0.036-0.409-0.027-0.462 0.124-0.622 0.329-0.356 0.889-0.569 2.951-1.093 0.729-0.178 1.707-0.48 2.178-0.649 1.647-0.661 3.051-1.385 4.375-2.224l-0.109 0.064c0.933-0.622 1.067-0.64 1.6-0.338zM10.978 18.24c1.404 0.409 2.649 0.533 4.96 0.489 1.742-0.036 2.818-0.142 4.356-0.418l0.622-0.098c0.080 0 0.062 2.569-0.018 3.244-0.089 0.711-0.284 1.271-0.489 1.404-0.213 0.142-1.289 0.284-2.72 0.364-2.933 0.16-5.956 0-6.898-0.373-0.507-0.204-0.56-0.471-0.569-2.96 0-1.653 0.018-1.876 0.098-1.849 0.062 0.027 0.356 0.116 0.658 0.196zM12.56 23.929l1.449 0.178-0.249 0.284c-0.329 0.356-0.836 1.067-1.013 1.422-0.204 0.418-0.267 0.444-0.578 0.276l-0.267-0.151-0.142-0.907-0.187-1.049c-0.062-0.178-0.124-0.178 0.987-0.053zM19.698 23.858l-0.071 0.382-0.373 2.427c-0.338 2.382-0.569 3.502-0.773 3.876-0.293 0.498-0.978 0.8-2.098 0.889-0.094 0.004-0.205 0.006-0.316 0.006-0.532 0-1.053-0.047-1.559-0.138l0.053 0.008c0.379-0.595 0.802-1.11 1.278-1.571l0.002-0.002c0.169-0.089 0.213-0.089 0.782 0.213 0.667 0.347 0.996 0.4 0.996 0.178s-0.178-0.436-0.596-0.729c-0.4-0.284-0.533-0.444-0.533-0.622 0-0.062 0.187-0.356 0.427-0.676 0.231-0.311 0.569-0.818 0.747-1.12l0.329-0.533 0.302 0.036c0.604 0.089 0.764 0.080 0.747-0.053-0.009-0.071-0.124-0.267-0.258-0.427-0.087-0.105-0.162-0.225-0.218-0.355l-0.004-0.010c0-0.133 0.622-1.298 0.818-1.547 0.178-0.213 0.32-0.32 0.32-0.231zM15.52 24.391c0.329 0.222 1.582 1.316 1.662 1.449 0.036 0.062-1.253 2.080-1.511 2.373-0.027 0.027-0.169-0.036-0.302-0.142-0.311-0.233-0.691-0.496-1.079-0.748l-0.086-0.052-0.907-0.604 0.533-0.916c0.978-1.609 0.951-1.582 1.156-1.582 0.107 0 0.347 0.098 0.533 0.222zM18.053 24.64c-0.24 0.284-0.436 0.462-0.516 0.462-0.178 0-0.444-0.151-0.924-0.498l-0.4-0.293 0.8-0.044c0.418-0.018 0.836-0.044 0.907-0.062 0.533-0.089 0.533-0.080 0.133 0.436zM12.987 27.858c0.622 0.24 1.662 0.8 1.956 1.067 0.222 0.178 0.222 0.178 0.133 0.4-0.053 0.116-0.231 0.444-0.409 0.711s-0.382 0.604-0.444 0.747c-0.222 0.418-0.293 0.444-0.729 0.329-0.48-0.142-0.729-0.382-0.862-0.818-0.178-0.613-0.471-2.329-0.444-2.596 0.018-0.107 0.302-0.044 0.8 0.16z"></path>
</symbol>





<!-- ABOUT AND CONTACTS SECTION -->
<symbol id="icon-vector" viewBox="0 0 22 32">
<path d="M3.104 0.736c-0.434 0.434-0.702 1.034-0.702 1.696s0.268 1.262 0.702 1.696l11.872 11.872-11.872 11.872c-0.399 0.427-0.644 1.003-0.644 1.636 0 1.325 1.075 2.4 2.4 2.4 0.633 0 1.209-0.245 1.638-0.645l-0.001 0.001 13.568-13.568c0.434-0.434 0.702-1.034 0.702-1.696s-0.268-1.262-0.702-1.696l-13.568-13.568c-0.434-0.434-1.034-0.702-1.696-0.702s-1.262 0.268-1.696 0.702l0-0z"></path>
</symbol>





<!-- CONTACTS SECTION -->
<symbol id="icon-facebook" viewBox="0 0 32 32">
<path fill="#f8d24e" style="fill: var(--color2, #f8d24e)" d="M16 32c8.837 0 16-7.163 16-16s-7.163-16-16-16v0c-8.837 0-16 7.163-16 16s7.163 16 16 16v0z"></path>
<path fill="#84a178" style="fill: var(--color3, #84a178)" d="M20.442 15.981h-2.607v9.619h-3.953v-9.619h-1.882v-3.388h1.882v-2.184c0-1.562 0.734-4.009 3.991-4.009l2.927 0.009v3.285h-2.127c-0.348 0-0.838 0.179-0.838 0.922v1.986h2.955l-0.348 3.379z"></path>
</symbol>
<symbol id="icon-github" viewBox="0 0 32 32">
<path fill="#f8d24e" style="fill: var(--color2, #f8d24e)" d="M32 16c0 8.837-7.163 16-16 16s-16-7.163-16-16c0-8.837 7.163-16 16-16s16 7.163 16 16z"></path>
<path fill="#84a178" style="fill: var(--color3, #84a178)" d="M16 6.588c-5.176 0-9.412 4.235-9.412 9.412 0 4.414 3.096 8.414 7.209 9.412v-3.106c-0.156 0.037-0.335 0.059-0.519 0.059-0.865 0-1.619-0.474-2.016-1.177l-0.006-0.012c-0.216-0.376-0.593-0.753-0.988-0.734l-0.094-1.092c0.847-0.075 1.591 0.518 2.024 1.252 0.198 0.329 0.424 0.527 0.715 0.612 0.282 0.075 0.574 0.038 0.922-0.085 0.094-0.696 0.405-0.96 0.649-1.318v-0.009c-2.447-0.367-3.426-1.666-3.821-2.692-0.161-0.435-0.254-0.937-0.254-1.461 0-1.017 0.351-1.951 0.939-2.689l-0.007 0.009c0.019-0.019 0.047-0.075 0.038-0.113-0.424-1.261 0.094-2.306 0.104-2.409 0.48 0.141 0.565-0.151 2.089 0.781l0.264 0.16c0.113 0.066 0.075 0.028 0.188 0.019 0.64-0.169 1.318-0.264 1.976-0.282 0.668 0.019 1.336 0.113 2.005 0.282l0.085 0.019 0.075-0.038c1.911-1.158 1.845-0.781 2.353-0.941 0.019 0.104 0.518 1.167 0.104 2.409-0.056 0.169 1.656 1.732 0.715 4.254-0.395 1.026-1.365 2.325-3.821 2.692 0.311 0.48 0.696 0.734 0.687 1.722v3.887c4.113-0.998 7.209-4.998 7.209-9.412 0-5.176-4.235-9.412-9.412-9.412z"></path>
</symbol>
<symbol id="icon-telegram" viewBox="0 0 32 32">
<path fill="#f8d24e" style="fill: var(--color2, #f8d24e)" d="M32 16c0 8.837-7.163 16-16 16s-16-7.163-16-16c0-8.837 7.163-16 16-16s16 7.163 16 16z"></path>
<path fill="#84a178" style="fill: var(--color3, #84a178)" d="M12.866 18.372l-0.311 4.169c0.452 0 0.649-0.179 0.885-0.395l2.127-1.901 4.424 3.012c0.8 0.424 1.374 0.207 1.591-0.687l2.899-12.678c0.254-1.12-0.433-1.553-1.224-1.28l-17.035 6.089c-1.158 0.414-1.139 1.026-0.188 1.299l4.348 1.261 10.118-5.901c0.471-0.301 0.904-0.132 0.555 0.16l-8.188 6.852z"></path>
</symbol>
</defs>
</svg>