<svg aria-hidden="true" style="position: absolute; width: 0; height: 0; overflow: hidden;" version="1.1" xmlns="http://www.w3.org/2000/svg" xmlns:xlink="http://www.w3.org/1999/xlink">
<defs>


<!-- MENU AND MODAL ICONS -->
<symbol id="icon-close" viewBox="0 0 32 32">
<path fill="#fcfcfc" style="fill: var(--color1, #fcfcfc)" d="M23.88 6.7l-7.88 7.9-7.88-7.89c-0.171-0.139-0.391-0.224-0.631-0.224-0.552 0-1 0.448-1 1 0 0.232 0.079 0.446 0.212 0.616l-0.002-0.002 7.89 7.9-7.89 7.88c-0.215 0.184-0.35 0.456-0.35 0.76 0 0.552 0.448 1 1 1 0.303 0 0.575-0.135 0.758-0.348l0.001-0.001 7.89-7.88 7.88 7.89c0.174 0.149 0.401 0.24 0.65 0.24 0.552 0 1-0.448 1-1 0-0.249-0.091-0.477-0.242-0.652l0.001 0.001-7.88-7.89 7.88-7.88c0.218-0.185 0.355-0.458 0.355-0.764 0-0.552-0.448-1-1-1-0.301 0-0.57 0.133-0.754 0.343l-0.001 0.001z"></path>
</symbol>
<symbol id="icon-menu" viewBox="0 0 32 32">
<path fill="#fff" style="fill: var(--color4, #fff)" d="M26.73 14.67h-21.46c-0.7 0-1.27 0.56-1.27 1.26v0.14c0 0.7 0.57 1.26 1.27 1.26h21.46c0.7 0 1.27-0.56 1.27-1.26v-0.14c0-0.7-0.57-1.26-1.27-1.26zM26.73 21.33h-21.46c-0.7 0-1.27 0.57-1.27 1.27v0.13c0 0.7 0.57 1.27 1.27 1.27h21.46c0.7 0 1.27-0.57 1.27-1.27v-0.13c0-0.7-0.57-1.27-1.27-1.27zM26.73 8h-21.46c-0.7 0-1.27 0.57-1.27 1.27v0.13c0 0.7 0.57 1.27 1.27 1.27h21.46c0.7 0 1.27-0.57 1.27-1.27v-0.13c0-0.7-0.57-1.27-1.27-1.27z"></path>
</symbol>
    <symbol id="icon-arrow" viewBox="0 0 32 32">
<path d="M10.586 3.272c-0.375 0.375-0.586 0.884-0.586 1.414s0.211 1.039 0.586 1.414l9.9 9.9-9.9 9.9c-0.364 0.377-0.566 0.882-0.561 1.407s0.215 1.026 0.586 1.397 0.872 0.581 1.397 0.586c0.524 0.005 1.030-0.197 1.407-0.561l11.314-11.314c0.375-0.375 0.586-0.884 0.586-1.414s-0.211-1.039-0.586-1.414l-11.314-11.314c-0.375-0.375-0.884-0.586-1.414-0.586s-1.039 0.211-1.414 0.586z"></path>
</symbol>



<!-- HERO ICONS -->
<symbol id="icon-arrow-white" viewBox="0 0 82 32">
<path d="M81.414 17.414c0.781-0.781 0.781-2.047 0-2.828l-12.728-12.728c-0.781-0.781-2.047-0.781-2.828 0s-0.781 2.047 0 2.828l11.314 11.314-11.314 11.314c-0.781 0.781-0.781 2.047 0 2.828s2.047 0.781 2.828 0l12.728-12.728zM0 18h80v-4h-80v4z"></path>
</symbol>






<!-- PRODUCTS SECTIOM -->
<symbol id="icon-strilka" viewBox="0 0 82 32">
<path d="M81.4 17.4c0.354-0.36 0.572-0.855 0.572-1.4s-0.218-1.040-0.572-1.4l0 0-12.7-12.76c-0.369-0.429-0.912-0.699-1.519-0.699-1.105 0-2 0.895-2 2 0 0.607 0.27 1.15 0.696 1.517l0.003 0.002 11.3 11.34-11.32 11.32c-0.299 0.347-0.481 0.803-0.481 1.301 0 1.105 0.895 2 2 2 0.498 0 0.953-0.182 1.304-0.483l-0.003 0.002 12.74-12.72zM0 18h80v-4h-80v4z"></path>
</symbol>




<!-- ABOUT SECTION -->
<symbol id="weight" viewBox="0 0 32 32">
<path fill="#f8d24e" style="fill: var(--color1, #f8d24e)" d="M16 0c8.837 0 16 7.163 16 16s-7.163 16-16 16c-8.837 0-16-7.163-16-16s7.163-16 16-16z"></path>
<path fill="#000" style="fill: var(--color2, #000)" d="M14.688 4.874c-2.861 0.424-5.218 2.013-6.085 4.093-0.276 0.657-0.351 1.061-0.351 1.853 0.005 0.585 0.026 0.802 0.117 1.118 0.186 0.621 0.319 0.936 0.595 1.382l0.256 0.413-0.288 0.352c-2.271 2.826-2.521 6.8-0.627 9.931 0.707 1.175 1.862 2.329 2.989 3.002l0.335 0.196 9.175-0.077 0.218-0.119c0.761-0.429 1.835-1.387 2.436-2.163 0.87-1.13 1.486-2.5 1.737-3.993l0.007-0.053c0.085-0.533 0.085-2.112-0.005-2.614-0.271-1.547-0.851-2.872-1.766-4.047-0.175-0.223-0.314-0.409-0.314-0.424 0-0.010 0.096-0.171 0.207-0.352 0.255-0.406 0.467-0.875 0.612-1.373l0.010-0.040c0.143-0.518 0.143-1.811 0-2.329-0.511-1.837-2.042-3.369-4.207-4.212-0.607-0.238-1.644-0.492-2.314-0.574-0.622-0.072-2.159-0.058-2.739 0.031zM17.926 5.717c2.84 0.554 4.92 2.292 5.303 4.435 0.085 0.481 0.032 1.299-0.111 1.754-0.144 0.445-0.41 0.968-0.723 1.412-0.128 0.182-0.234 0.388-0.234 0.456s0.111 0.243 0.271 0.419c1.329 1.475 2.031 3.322 2.031 5.32-0.005 2.272-0.877 4.264-2.558 5.827-0.287 0.269-0.697 0.605-0.915 0.75l-0.399 0.269-8.792 0.036-0.34-0.218c-1.234-0.801-2.346-2.126-2.963-3.534-0.776-1.78-0.856-3.845-0.223-5.697 0.335-0.963 0.782-1.749 1.462-2.577 0.277-0.332 0.404-0.528 0.404-0.621 0-0.078-0.138-0.332-0.319-0.595-0.638-0.927-0.899-1.956-0.744-2.929 0.16-0.983 0.606-1.791 1.431-2.592 1.074-1.041 2.574-1.73 4.334-1.988 0.728-0.109 2.34-0.067 3.085 0.072z"></path>
<path fill="#000" style="fill: var(--color2, #000)" d="M14.927 6.628c-2.18 0.357-3.888 1.568-4.447 3.157-0.128 0.357-0.148 0.497-0.148 1.009s0.021 0.652 0.148 1.009c0.080 0.228 0.229 0.544 0.33 0.704 0.277 0.445 0.399 0.461 0.947 0.129 0.788-0.485 1.705-0.857 2.683-1.062l0.056-0.010c0.659-0.134 1.925-0.186 2.643-0.103 1.122 0.129 2.34 0.532 3.313 1.107 0.277 0.16 0.559 0.294 0.628 0.294 0.404 0 0.92-1.164 0.92-2.069 0-2.013-1.926-3.736-4.654-4.166-0.58-0.093-1.862-0.093-2.42 0zM17.559 7.456c0.915 0.196 1.756 0.57 2.388 1.061 0.851 0.657 1.308 1.573 1.234 2.458-0.027 0.352-0.16 0.828-0.239 0.88-0.021 0.010-0.319-0.114-0.659-0.279-0.667-0.327-1.443-0.6-2.254-0.779l-0.070-0.013c-0.495-0.103-0.702-0.119-1.809-0.114-1.090 0-1.318 0.016-1.792 0.114-0.819 0.176-1.457 0.394-2.244 0.766-0.793 0.378-0.75 0.383-0.894-0.083-0.186-0.605-0.069-1.407 0.292-2.013 0.192-0.321 0.718-0.854 1.101-1.117 0.73-0.502 1.368-0.73 2.739-0.979 0.282-0.051 1.846 0.021 2.208 0.099zM16.693 14.131c-0.149 0.187-0.149 0.363 0.005 0.513 0.101 0.099 0.202 0.124 0.57 0.15 0.745 0.054 1.428 0.274 2.027 0.623l-0.022-0.012c0.436 0.259 1.101 0.885 1.399 1.335 0.442 0.646 0.744 1.573 0.744 2.257 0 0.238 0.022 0.31 0.133 0.413 0.17 0.171 0.394 0.171 0.559 0 0.117-0.119 0.122-0.15 0.090-0.657-0.149-2.505-2.292-4.595-4.856-4.736l-0.532-0.031-0.116 0.145z"></path>
</symbol>
<symbol id="ice-crema" viewBox="0 0 31 32">
<path fill="#f8d24e" style="fill: var(--color1, #f8d24e)" d="M15.686 0c8.663 0 15.686 7.023 15.686 15.686v0.008c0 8.663-7.023 15.686-15.686 15.686s-15.686-7.023-15.686-15.686v-0.008c0-8.663 7.023-15.686 15.686-15.686z"></path>
<path fill="#000" style="fill: var(--color2, #000)" d="M15.763 4.467c0.056 0.152 0.17 0.884 0.17 1.111 0 0.002 0 0.005 0 0.008 0 0.577-0.225 1.102-0.591 1.492l0.001-0.001c-0.317 0.34-0.634 0.529-1.394 0.836-0.846 0.345-1.196 0.553-1.592 0.945-0.402 0.402-0.638 0.841-0.723 1.357-0.095 0.562 0 0.959 0.288 1.186l0.146 0.113-0.232 0.147c-0.467 0.307-1.318 1.030-1.464 1.252-0.284 0.425-0.255 0.822 0.066 0.983l0.151 0.075-0.17 0.161c-0.255 0.241-0.307 0.407-0.27 0.841 0.024 0.289 0.014 0.445-0.051 0.681-0.080 0.307-0.080 0.312 0.023 0.53 0.104 0.213 0.397 0.482 0.662 0.595 0.127 0.056 0.132 0.075 0.161 0.51 0.014 0.251 0.038 1.049 0.056 1.777 0.014 0.728 0.048 1.394 0.075 1.474 0.024 0.085 0.114 0.198 0.194 0.255 0.274 0.189 0.463 0.393 0.585 0.629 0.137 0.27 0.289 0.931 0.747 3.218l0.322 1.606 0.198 0.189c0.378 0.373 1.101 0.543 2.292 0.543 1.195 0 1.909-0.166 2.287-0.539l0.203-0.193 0.292-1.489c0.647-3.256 0.704-3.435 1.21-3.837 0.156-0.128 0.307-0.284 0.335-0.355 0.033-0.080 0.067-0.7 0.090-1.635 0.019-0.831 0.048-1.654 0.067-1.829l0.028-0.316 0.307-0.232c0.387-0.297 0.538-0.567 0.538-0.983-0.004-0.491-0.326-1.030-0.912-1.512l-0.279-0.226 0.137-0.194c0.572-0.789 0.213-1.88-0.851-2.608l-0.321-0.222 0.118-0.123c0.525-0.562 0.61-2.24 0.17-3.407-0.264-0.695-0.87-1.451-1.611-2.008-0.363-0.274-1.365-0.879-1.454-0.879-0.019 0-0.019 0.033-0.004 0.075zM17.123 6.118c0.251 0.246 0.553 0.581 0.671 0.751 0.704 0.983 0.883 2.217 0.458 3.124-0.17 0.368-0.681 0.916-1.153 1.242-0.723 0.501-2.349 1.343-3.482 1.805-1.824 0.742-2.883 0.884-3.005 0.397-0.048-0.184 0.090-0.331 0.671-0.718 0.524-0.359 2.877-2.108 2.92-2.178 0.014-0.019-0.227 0.090-0.53 0.241-1.025 0.52-1.512 0.42-1.488-0.302 0.014-0.525 0.392-1.119 0.916-1.46 0.133-0.085 0.544-0.274 0.922-0.425 1.242-0.501 1.621-0.756 2.041-1.384 0.251-0.373 0.525-1.064 0.543-1.357 0.005-0.104 0.024-0.184 0.038-0.184s0.227 0.203 0.477 0.449zM18.413 11.486c0.345 0.193 0.704 0.525 0.86 0.784 0.275 0.467 0.133 0.936-0.458 1.531-0.642 0.653-1.739 1.276-2.944 1.673-1.111 0.364-2.174 0.534-3.696 0.586l-0.945 0.033 0.615 0.038c0.794 0.052 2.329 0.005 2.925-0.090 1.583-0.251 2.93-0.752 3.894-1.441 0.218-0.156 0.444-0.284 0.506-0.284 0.156 0 0.836 0.653 0.973 0.926 0.076 0.156 0.095 0.27 0.080 0.42-0.071 0.629-0.836 0.964-2.684 1.186-2.259 0.27-5.212 0.005-6.474-0.576-0.596-0.274-0.695-0.43-0.543-0.846 0.047-0.132 0.056-0.289 0.038-0.511-0.024-0.293-0.019-0.331 0.085-0.439 0.237-0.255 0.634-0.402 2.089-0.771 0.51-0.132 1.205-0.34 1.535-0.463 0.803-0.293 2.311-1.054 3.010-1.522 0.657-0.435 0.752-0.454 1.134-0.236zM12.137 17.27c0.993 0.289 1.872 0.373 3.507 0.34 1.229-0.023 1.985-0.099 3.076-0.293 0.223-0.038 0.416-0.071 0.44-0.071 0.052 0 0.038 1.815-0.019 2.292-0.061 0.506-0.199 0.898-0.345 0.993-0.151 0.099-0.907 0.203-1.919 0.26-2.074 0.113-4.206 0-4.867-0.265-0.359-0.146-0.397-0.336-0.402-2.089 0-1.167 0.009-1.328 0.071-1.304 0.038 0.014 0.245 0.075 0.458 0.137zM13.257 21.287c0.341 0.043 0.709 0.085 0.822 0.099l0.204 0.024-0.18 0.198c-0.232 0.25-0.586 0.751-0.713 1.006-0.146 0.293-0.194 0.312-0.411 0.194l-0.184-0.104-0.104-0.642c-0.055-0.357-0.101-0.609-0.152-0.859l0.020 0.117c-0.043-0.122-0.085-0.122 0.699-0.033zM18.295 21.235c0 0.009-0.024 0.132-0.048 0.27-0.028 0.141-0.146 0.912-0.264 1.715-0.241 1.678-0.402 2.466-0.548 2.731-0.203 0.355-0.69 0.562-1.479 0.629-0.307 0.024-1.234-0.038-1.286-0.085-0.038-0.042 0.775-1.049 0.903-1.115 0.118-0.067 0.151-0.056 0.552 0.151 0.468 0.247 0.705 0.284 0.705 0.128s-0.123-0.307-0.425-0.514c-0.279-0.199-0.378-0.312-0.378-0.445 0-0.038 0.137-0.25 0.302-0.472s0.406-0.577 0.529-0.789l0.232-0.383 0.212 0.029c0.43 0.061 0.543 0.056 0.53-0.038-0.009-0.048-0.090-0.184-0.18-0.298-0.090-0.118-0.161-0.237-0.161-0.26 0-0.090 0.439-0.917 0.582-1.092 0.123-0.151 0.222-0.227 0.222-0.161zM15.342 21.613c0.236 0.156 1.124 0.926 1.181 1.021 0.024 0.043-0.888 1.47-1.068 1.673-0.019 0.024-0.118-0.023-0.217-0.099-0.22-0.166-0.488-0.352-0.762-0.531l-0.060-0.037-0.638-0.42 0.383-0.648c0.68-1.139 0.666-1.12 0.813-1.12 0.075 0 0.241 0.071 0.369 0.161zM17.133 21.783c-0.166 0.203-0.302 0.331-0.359 0.331-0.123 0-0.322-0.109-0.657-0.355l-0.279-0.203 0.558-0.033c0.246-0.009 0.47-0.024 0.692-0.046l-0.046 0.004c0.378-0.061 0.378-0.056 0.090 0.303zM13.56 24.056c0.435 0.17 1.172 0.572 1.385 0.752 0.151 0.122 0.151 0.132 0.090 0.283-0.1 0.199-0.197 0.364-0.304 0.523l0.011-0.017c-0.091 0.135-0.196 0.306-0.295 0.482l-0.022 0.043c-0.151 0.293-0.198 0.317-0.51 0.232-0.336-0.1-0.514-0.27-0.609-0.577-0.128-0.43-0.331-1.644-0.307-1.833 0.009-0.071 0.208-0.028 0.562 0.114z"></path>
</symbol>
<symbol id="cow" viewBox="0 0 32 32">
<path fill="#f8d24e" style="fill: var(--color1, #f8d24e)" d="M16 0c8.837 0 16 7.163 16 16s-7.163 16-16 16c-8.837 0-16-7.163-16-16s7.163-16 16-16z"></path>
<path fill="#131313" style="fill: var(--color3, #131313)" d="M8.922 4.618c-0.188 0.163-0.725 1.283-0.918 1.894-0.229 0.758-0.307 1.326-0.276 2.111 0.042 1.12 0.323 1.97 0.943 2.858 0.162 0.232 0.292 0.433 0.292 0.449 0 0.011-0.099 0.021-0.224 0.021-0.538 0-1.544 0.179-2.315 0.412-1.225 0.368-1.944 1.012-1.944 1.732 0 0.255 0.229 0.687 0.474 0.909 0.474 0.428 1.512 0.834 2.627 1.028 0.386 0.070 1.533 0.189 1.788 0.195 0.047 0 0.063 0.249 0.063 1.066 0 0.703 0.026 1.25 0.078 1.585 0.188 1.201 0.771 2.474 1.542 3.372l0.266 0.308-0.177 0.287c-0.26 0.406-0.36 0.714-0.39 1.174-0.079 1.104 0.609 2.083 1.939 2.771 2.532 1.315 6.468 0.8 7.944-1.039 0.719-0.899 0.803-1.926 0.234-2.858l-0.177-0.287 0.318-0.384c0.595-0.714 0.98-1.428 1.272-2.332 0.244-0.769 0.339-1.51 0.339-2.685 0-0.536 0.015-0.979 0.042-0.979 0.24-0.006 1.392-0.13 1.757-0.195 1.121-0.195 2.138-0.595 2.627-1.028 0.245-0.222 0.474-0.655 0.474-0.909 0-0.801-0.813-1.45-2.325-1.84-0.495-0.13-1.428-0.287-1.882-0.314l-0.214-0.017 0.235-0.324c0.292-0.396 0.657-1.164 0.797-1.667 0.396-1.455 0.151-3.149-0.699-4.768-0.354-0.671-0.599-0.828-0.886-0.563-0.109 0.104-0.156 0.244-0.26 0.753-0.323 1.619-0.923 2.901-1.798 3.848l-0.386 0.422h-8.246l-0.344-0.374c-0.854-0.942-1.475-2.273-1.798-3.897-0.104-0.509-0.151-0.649-0.26-0.752-0.172-0.157-0.339-0.152-0.531 0.016zM9.588 7.828c0.276 0.606 0.621 1.174 1.027 1.699l0.323 0.417-0.339 0.255c-0.318 0.243-0.615 0.589-0.845 0.985l-0.099 0.179-0.25-0.341c-0.855-1.18-1.069-2.625-0.615-4.124 0.219-0.725 0.214-0.719 0.412-0.092 0.094 0.303 0.271 0.763 0.386 1.023zM23.156 6.686c0.189 0.524 0.298 1.13 0.298 1.76 0 0.022-0 0.045-0 0.067l0-0.003c0 0.984-0.26 1.818-0.808 2.565l-0.245 0.335-0.182-0.308c-0.236-0.4-0.542-0.734-0.903-0.995l-0.009-0.007c-0.141-0.092-0.25-0.184-0.25-0.195 0-0.016 0.099-0.141 0.224-0.276 0.579-0.644 1.199-1.802 1.507-2.798 0.093-0.308 0.188-0.563 0.203-0.563s0.094 0.189 0.166 0.417zM20.493 10.642c0.579 0.243 1.131 0.941 1.22 1.532 0.047 0.325 0.156 0.531 0.297 0.563 0.063 0.010 0.495 0.049 0.959 0.081 1.647 0.109 2.945 0.461 3.498 0.942 0.255 0.227 0.229 0.416-0.078 0.65-0.615 0.465-1.944 0.817-3.3 0.877-0.897 0.038-1.084 0.064-1.204 0.189-0.089 0.092-0.099 0.189-0.099 1.169 0 1.326-0.068 2.089-0.235 2.706-0.234 0.838-0.698 1.732-1.24 2.365l-0.224 0.26-0.464-0.276c-0.495-0.307-1.069-0.547-1.681-0.69l-0.039-0.008c-1.976-0.472-4.16-0.184-5.629 0.741l-0.339 0.216-0.214-0.255c-0.292-0.34-0.751-1.071-0.933-1.483-0.401-0.931-0.521-1.688-0.521-3.355 0-1.619 0.083-1.5-1.116-1.564-1.533-0.081-2.701-0.357-3.436-0.823-0.542-0.346-0.453-0.655 0.303-1.018 0.724-0.351 1.72-0.563 3.101-0.649 1.074-0.070 1.1-0.086 1.199-0.606 0.146-0.785 0.724-1.434 1.455-1.64 0.182-0.054 1.204-0.065 4.332-0.060l4.092 0.010 0.297 0.125zM17.564 21.844c1.277 0.314 2.231 0.899 2.643 1.624 0.099 0.168 0.141 0.341 0.161 0.606 0.021 0.33 0.006 0.412-0.12 0.682-0.579 1.229-2.705 2.040-4.868 1.856-2.601-0.216-4.311-1.667-3.638-3.090 0.365-0.769 1.6-1.505 2.903-1.722 0.214-0.032 0.428-0.070 0.469-0.081s0.511-0.011 1.043 0c0.724 0.016 1.073 0.049 1.407 0.124z"></path>
<path fill="#131313" style="fill: var(--color3, #131313)" d="M12.392 13.351c-0.323 0.109-0.542 0.25-0.834 0.541-0.255 0.243-0.276 0.53-0.062 0.703 0.198 0.162 0.385 0.141 0.625-0.070 0.302-0.265 0.537-0.374 0.829-0.374 0.292-0.005 0.516 0.098 0.829 0.374 0.24 0.211 0.428 0.232 0.625 0.070 0.104-0.087 0.136-0.157 0.136-0.32 0-0.167-0.036-0.243-0.219-0.427-0.516-0.519-1.283-0.719-1.929-0.498zM18.47 13.345c-0.333 0.125-0.761 0.406-0.932 0.617-0.167 0.206-0.173 0.438 0 0.612 0.172 0.184 0.38 0.173 0.63-0.033 0.615-0.509 1.074-0.525 1.642-0.054 0.146 0.125 0.312 0.222 0.365 0.222 0.255 0 0.464-0.227 0.464-0.498 0-0.173-0.433-0.573-0.824-0.763-0.433-0.211-0.948-0.249-1.345-0.102zM13.149 23.361c-0.151 0.146-0.204 0.356-0.125 0.525 0.058 0.134 0.146 0.189 0.506 0.287 0.162 0.043 0.23 0.097 0.287 0.232 0.073 0.179 0.078 0.179 0.48 0.195l0.401 0.017v-0.152c-0.005-0.216-0.125-0.53-0.282-0.746-0.182-0.25-0.5-0.412-0.86-0.444-0.245-0.021-0.307-0.011-0.406 0.087zM18.127 23.323c-0.26 0.070-0.636 0.422-0.74 0.698-0.052 0.145-0.087 0.313-0.098 0.487l-0 0.006c-0.011 0.232 0.010 0.287 0.135 0.4 0.307 0.271 0.714 0.060 0.714-0.373 0-0.211 0.156-0.357 0.433-0.411 0.292-0.054 0.397-0.173 0.401-0.449 0-0.362-0.323-0.503-0.845-0.357z"></path>
</symbol>
<symbol id="icon-cow" viewBox="0 0 32 32">
<path d="M6.002 0.778c-0.259 0.216-0.977 1.73-1.237 2.56-0.248 0.731-0.391 1.572-0.391 2.447 0 0.143 0.004 0.285 0.011 0.426l-0.001-0.020c0.061 1.514 0.432 2.655 1.28 3.857 0.216 0.311 0.389 0.588 0.389 0.605-1.242 0.047-2.416 0.259-3.527 0.614l0.093-0.026c-1.635 0.493-2.621 1.367-2.621 2.335 0 0.346 0.311 0.934 0.64 1.228 0.64 0.579 2.041 1.124 3.546 1.384 0.519 0.104 2.076 0.259 2.422 0.268 0.061 0 0.087 0.346 0.087 1.444 0 0.951 0.035 1.686 0.104 2.145 0.259 1.617 1.038 3.338 2.084 4.549l0.363 0.415-0.242 0.389c-0.346 0.553-0.484 0.969-0.528 1.591-0.104 1.488 0.822 2.811 2.621 3.745 3.425 1.773 8.735 1.081 10.733-1.41 0.969-1.211 1.090-2.595 0.32-3.857l-0.242-0.389 0.432-0.519c0.747-0.886 1.333-1.935 1.695-3.084l0.017-0.064c0.337-1.038 0.458-2.041 0.458-3.632 0-0.718 0.026-1.323 0.061-1.323 0.32 0 1.877-0.173 2.37-0.259 1.522-0.259 2.889-0.804 3.546-1.384 0.346-0.303 0.649-0.891 0.649-1.237 0-1.081-1.098-1.955-3.139-2.482-0.675-0.173-1.929-0.389-2.543-0.432l-0.294-0.017 0.32-0.432c0.445-0.646 0.812-1.392 1.065-2.189l0.016-0.060c0.528-1.972 0.199-4.264-0.951-6.452-0.476-0.908-0.804-1.116-1.194-0.761-0.147 0.138-0.208 0.329-0.346 1.021-0.34 2.014-1.209 3.782-2.458 5.21l0.010-0.012-0.519 0.571h-11.139l-0.45-0.502c-1.226-1.447-2.087-3.239-2.421-5.211l-0.009-0.064c-0.147-0.683-0.208-0.865-0.355-1.012-0.242-0.208-0.467-0.199-0.726 0.026zM6.902 5.103c0.372 0.822 0.839 1.591 1.384 2.301l0.441 0.562-0.458 0.346c-0.432 0.329-0.83 0.796-1.142 1.323l-0.13 0.242-0.346-0.458c-0.718-0.996-1.149-2.241-1.149-3.587 0-0.71 0.12-1.391 0.34-2.026l-0.013 0.043c0.294-0.977 0.285-0.977 0.553-0.13 0.13 0.415 0.363 1.038 0.519 1.384zM25.237 3.563c0.294 0.865 0.407 1.557 0.407 2.465 0 1.332-0.355 2.456-1.098 3.459l-0.329 0.458-0.242-0.415c-0.294-0.519-0.778-1.046-1.237-1.358-0.128-0.076-0.239-0.162-0.337-0.26l0 0c1.029-1.158 1.829-2.544 2.313-4.071l0.022-0.080c0.13-0.415 0.259-0.761 0.277-0.761 0.026 0 0.13 0.259 0.225 0.562zM21.639 8.908c0.828 0.405 1.435 1.154 1.639 2.055l0.004 0.020c0.069 0.432 0.216 0.709 0.407 0.752 0.087 0.017 0.666 0.069 1.297 0.112 2.223 0.147 3.978 0.623 4.722 1.271 0.346 0.303 0.311 0.562-0.104 0.873-0.83 0.631-2.629 1.107-4.454 1.185-1.211 0.052-1.47 0.086-1.626 0.259-0.121 0.121-0.138 0.259-0.138 1.574 0 1.799-0.087 2.828-0.32 3.658-0.354 1.231-0.927 2.3-1.681 3.215l0.012-0.015-0.303 0.346-0.631-0.372c-0.669-0.415-1.446-0.74-2.274-0.932l-0.053-0.010c-2.664-0.64-5.622-0.251-7.611 1.003l-0.45 0.294-0.294-0.346c-0.466-0.583-0.883-1.242-1.226-1.944l-0.028-0.063c-0.545-1.254-0.709-2.283-0.709-4.532 0-2.188 0.112-2.024-1.505-2.11-2.076-0.112-3.65-0.484-4.644-1.116-0.735-0.467-0.605-0.882 0.406-1.375 0.977-0.476 2.326-0.761 4.195-0.873 1.453-0.095 1.488-0.121 1.617-0.822 0.196-1.056 0.952-1.896 1.943-2.209l0.020-0.005c0.251-0.069 1.635-0.086 5.855-0.086l5.535 0.017 0.398 0.173zM17.678 24.043c1.73 0.424 3.018 1.211 3.572 2.197 0.138 0.225 0.19 0.458 0.225 0.813 0.026 0.45 0 0.553-0.173 0.925-0.778 1.661-3.65 2.75-6.573 2.508-3.511-0.294-5.829-2.249-4.912-4.177 0.493-1.038 2.162-2.032 3.918-2.326 0.294-0.043 0.579-0.087 0.64-0.112 0.184-0.006 0.401-0.010 0.619-0.010 0.947 0 1.878 0.066 2.79 0.195l-0.105-0.012z"></path>
<path d="M10.69 12.575c-0.432 0.147-0.726 0.346-1.124 0.735-0.346 0.329-0.372 0.718-0.086 0.951 0.268 0.216 0.519 0.19 0.848-0.095 0.406-0.363 0.726-0.502 1.124-0.502 0.389-0.009 0.692 0.13 1.116 0.502 0.329 0.285 0.579 0.311 0.848 0.086 0.138-0.112 0.182-0.208 0.182-0.424 0-0.225-0.052-0.329-0.294-0.579-0.692-0.692-1.73-0.969-2.612-0.675zM18.906 12.575c-0.45 0.164-1.029 0.545-1.263 0.83-0.225 0.277-0.233 0.588 0 0.822 0.233 0.259 0.519 0.242 0.856-0.043 0.83-0.692 1.453-0.709 2.214-0.069 0.199 0.173 0.432 0.303 0.493 0.303 0.346 0 0.631-0.311 0.631-0.675 0-0.233-0.588-0.778-1.116-1.038-0.311-0.157-0.678-0.25-1.067-0.25-0.268 0-0.526 0.044-0.767 0.125l0.017-0.005zM11.71 26.102c-0.199 0.199-0.268 0.484-0.173 0.709 0.086 0.19 0.208 0.259 0.692 0.389 0.216 0.061 0.311 0.13 0.389 0.32 0.095 0.242 0.104 0.242 0.649 0.259l0.536 0.026v-0.208c0-0.294-0.173-0.718-0.381-1.012-0.277-0.346-0.688-0.575-1.154-0.605l-0.005-0c-0.329-0.017-0.415 0-0.553 0.121zM18.439 26.058c-0.346 0.087-0.856 0.562-0.995 0.943-0.069 0.164-0.13 0.467-0.138 0.657-0.009 0.32 0.017 0.389 0.182 0.545 0.415 0.363 0.969 0.087 0.969-0.502 0-0.285 0.208-0.484 0.588-0.562 0.389-0.069 0.528-0.233 0.536-0.605 0-0.484-0.432-0.675-1.142-0.476z"></path>
</symbol>
<symbol id="icon-weight" viewBox="0 0 32 32">
<path d="M14.178 0.551c-3.973 0.587-7.244 2.791-8.444 5.689-0.318 0.682-0.503 1.481-0.503 2.324 0 0.086 0.002 0.172 0.006 0.257l-0-0.012c0.009 0.809 0.044 1.111 0.169 1.547 0.258 0.862 0.444 1.307 0.827 1.92l0.356 0.578-0.4 0.489c-1.638 2.042-2.629 4.664-2.629 7.517 0 2.318 0.654 4.484 1.787 6.322l-0.030-0.052c0.978 1.636 2.578 3.236 4.151 4.178l0.462 0.267 6.364-0.044 6.382-0.062 0.302-0.169c1.311-0.829 2.427-1.826 3.358-2.979l0.020-0.026c1.262-1.636 2.080-3.547 2.427-5.618 0.116-0.738 0.116-2.933 0-3.627-0.363-2.152-1.233-4.055-2.482-5.645l0.020 0.027c-0.146-0.175-0.29-0.369-0.421-0.572l-0.014-0.024 0.293-0.489c0.356-0.569 0.684-1.316 0.862-1.956 0.196-0.72 0.196-2.524 0-3.236-0.711-2.551-2.844-4.684-5.849-5.858-0.836-0.329-2.276-0.676-3.209-0.8-0.862-0.089-2.996-0.071-3.804 0.053zM18.667 1.716c3.947 0.773 6.836 3.191 7.369 6.16 0.116 0.667 0.044 1.804-0.16 2.436-0.196 0.622-0.569 1.351-1.004 1.964-0.178 0.249-0.32 0.533-0.32 0.631 0 0.089 0.151 0.338 0.373 0.587 1.849 2.044 2.818 4.613 2.818 7.387 0 3.156-1.218 5.92-3.556 8.089-0.391 0.382-0.96 0.844-1.262 1.049l-0.56 0.373-12.204 0.044-0.48-0.302c-3.045-1.997-5.027-5.394-5.027-9.254 0-2.733 0.994-5.234 2.64-7.161l-0.013 0.015c0.391-0.453 0.569-0.729 0.569-0.862 0-0.107-0.187-0.462-0.444-0.827-0.676-0.916-1.081-2.067-1.081-3.313 0-0.264 0.018-0.524 0.053-0.778l-0.003 0.029c0.249-1.445 0.965-2.69 1.985-3.604l0.006-0.005c1.608-1.474 3.676-2.471 5.966-2.75l0.052-0.005c1.013-0.151 3.253-0.089 4.284 0.098z"></path>
<path d="M14.507 2.987c-3.022 0.489-5.396 2.178-6.169 4.382-0.178 0.498-0.213 0.684-0.213 1.404 0 0.711 0.036 0.898 0.213 1.396 0.107 0.32 0.311 0.756 0.453 0.978 0.382 0.622 0.551 0.64 1.316 0.178 1.094-0.673 2.368-1.187 3.727-1.471l0.078-0.014c0.916-0.187 2.667-0.267 3.671-0.142 1.556 0.178 3.253 0.738 4.604 1.538 0.382 0.222 0.773 0.409 0.871 0.409 0.56 0 1.28-1.618 1.28-2.871 0-2.8-2.676-5.191-6.471-5.787-0.8-0.133-2.578-0.133-3.36 0zM18.169 4.133c1.271 0.267 2.436 0.791 3.316 1.476 1.182 0.907 1.813 2.187 1.716 3.413-0.044 0.489-0.222 1.156-0.338 1.218-0.027 0.018-0.444-0.151-0.916-0.382-0.978-0.48-2.098-0.862-3.227-1.102-0.684-0.142-0.978-0.169-2.516-0.16-1.511 0-1.831 0.027-2.489 0.16-1.138 0.24-2.018 0.542-3.111 1.067-1.102 0.524-1.040 0.533-1.244-0.116-0.258-0.844-0.089-1.956 0.409-2.8 0.426-0.607 0.932-1.121 1.51-1.543l0.019-0.013c1.013-0.693 1.893-1.013 3.804-1.351 0.391-0.071 2.56 0.027 3.067 0.133zM16.96 13.404c-0.204 0.267-0.204 0.507 0.009 0.711 0.142 0.133 0.284 0.178 0.791 0.213 0.987 0.071 1.938 0.356 2.782 0.844 0.765 0.507 1.41 1.124 1.932 1.837l0.015 0.021c0.596 0.882 0.973 1.956 1.031 3.114l0.001 0.015c0 0.329 0.036 0.436 0.187 0.578 0.24 0.24 0.551 0.24 0.773 0 0.169-0.169 0.178-0.213 0.124-0.916-0.303-3.559-3.161-6.362-6.718-6.577l-0.020-0.001-0.738-0.044-0.169 0.204z"></path>
</symbol>
<symbol id="icon-ice-crema" viewBox="0 0 32 32">
<path d="M16.107 0.107c0.089 0.213 0.24 1.244 0.24 1.573 0 0.8-0.293 1.538-0.836 2.124-0.444 0.48-0.889 0.747-1.973 1.182-0.879 0.288-1.634 0.745-2.261 1.336l0.003-0.003c-0.525 0.501-0.892 1.164-1.019 1.909l-0.003 0.020c-0.133 0.8 0 1.36 0.409 1.68l0.204 0.16-0.329 0.204c-0.658 0.444-1.867 1.467-2.071 1.778-0.4 0.604-0.356 1.156 0.089 1.396l0.222 0.107-0.249 0.222c-0.356 0.347-0.436 0.578-0.382 1.191 0.036 0.409 0.027 0.631-0.071 0.969-0.116 0.436-0.116 0.444 0.036 0.747s0.56 0.684 0.933 0.844c0.178 0.080 0.187 0.107 0.231 0.72l0.080 2.516c0.018 1.031 0.071 1.982 0.107 2.089 0.057 0.149 0.152 0.273 0.273 0.363l0.002 0.002c0.391 0.267 0.658 0.56 0.827 0.889 0.196 0.382 0.409 1.324 1.067 4.56l0.444 2.276 0.284 0.267c0.533 0.533 1.564 0.773 3.244 0.773 1.698 0 2.711-0.231 3.244-0.764l0.284-0.267 0.418-2.116c0.916-4.613 0.996-4.871 1.716-5.44 0.222-0.178 0.436-0.4 0.471-0.498 0.053-0.116 0.089-0.987 0.133-2.311 0.027-1.182 0.062-2.347 0.089-2.596l0.044-0.444 0.436-0.329c0.542-0.427 0.764-0.8 0.764-1.396-0.009-0.693-0.462-1.458-1.298-2.142l-0.391-0.32 0.196-0.276c0.8-1.12 0.293-2.667-1.209-3.698l-0.453-0.311 0.169-0.178c0.738-0.8 0.862-3.173 0.24-4.827-0.512-1.159-1.292-2.118-2.265-2.831l-0.019-0.014c-0.595-0.437-1.271-0.85-1.98-1.207l-0.082-0.037c-0.027 0-0.027 0.044 0 0.107zM18.036 2.444c0.356 0.356 0.782 0.827 0.951 1.067 0.996 1.387 1.244 3.138 0.649 4.418-0.416 0.713-0.965 1.305-1.618 1.757l-0.018 0.012c-1.022 0.711-3.324 1.893-4.933 2.551-2.578 1.049-4.089 1.253-4.258 0.569-0.062-0.267 0.133-0.471 0.951-1.022 0.747-0.507 4.080-2.987 4.142-3.084-0.296 0.106-0.545 0.22-0.783 0.352l0.027-0.014c-1.449 0.738-2.133 0.596-2.107-0.427 0.018-0.747 0.56-1.582 1.298-2.071 0.187-0.116 0.773-0.382 1.307-0.596 1.76-0.711 2.293-1.076 2.889-1.964 0.411-0.623 0.703-1.362 0.823-2.157l0.004-0.030c0.018 0 0.32 0.293 0.676 0.64zM19.867 10.044c0.489 0.276 0.996 0.747 1.218 1.111 0.382 0.667 0.178 1.333-0.649 2.169-1.157 1.057-2.555 1.872-4.101 2.353l-0.077 0.021c-1.564 0.516-3.076 0.756-5.227 0.827l-1.342 0.053 0.871 0.053c1.12 0.071 3.298 0 4.142-0.133 2.078-0.275 3.945-1 5.559-2.074l-0.048 0.030c0.311-0.213 0.631-0.391 0.72-0.391 0.222 0 1.191 0.924 1.378 1.307 0.107 0.222 0.133 0.382 0.116 0.596-0.098 0.889-1.182 1.369-3.804 1.689-3.2 0.373-7.378 0-9.164-0.827-0.844-0.382-0.987-0.604-0.773-1.191 0.062-0.196 0.080-0.409 0.053-0.729-0.036-0.409-0.027-0.462 0.124-0.622 0.329-0.356 0.889-0.569 2.951-1.093 0.729-0.178 1.707-0.48 2.178-0.649 1.647-0.661 3.051-1.385 4.375-2.224l-0.109 0.064c0.933-0.622 1.067-0.64 1.6-0.338zM10.978 18.24c1.404 0.409 2.649 0.533 4.96 0.489 1.742-0.036 2.818-0.142 4.356-0.418l0.622-0.098c0.080 0 0.062 2.569-0.018 3.244-0.089 0.711-0.284 1.271-0.489 1.404-0.213 0.142-1.289 0.284-2.72 0.364-2.933 0.16-5.956 0-6.898-0.373-0.507-0.204-0.56-0.471-0.569-2.96 0-1.653 0.018-1.876 0.098-1.849 0.062 0.027 0.356 0.116 0.658 0.196zM12.56 23.929l1.449 0.178-0.249 0.284c-0.329 0.356-0.836 1.067-1.013 1.422-0.204 0.418-0.267 0.444-0.578 0.276l-0.267-0.151-0.142-0.907-0.187-1.049c-0.062-0.178-0.124-0.178 0.987-0.053zM19.698 23.858l-0.071 0.382-0.373 2.427c-0.338 2.382-0.569 3.502-0.773 3.876-0.293 0.498-0.978 0.8-2.098 0.889-0.094 0.004-0.205 0.006-0.316 0.006-0.532 0-1.053-0.047-1.559-0.138l0.053 0.008c0.379-0.595 0.802-1.11 1.278-1.571l0.002-0.002c0.169-0.089 0.213-0.089 0.782 0.213 0.667 0.347 0.996 0.4 0.996 0.178s-0.178-0.436-0.596-0.729c-0.4-0.284-0.533-0.444-0.533-0.622 0-0.062 0.187-0.356 0.427-0.676 0.231-0.311 0.569-0.818 0.747-1.12l0.329-0.533 0.302 0.036c0.604 0.089 0.764 0.080 0.747-0.053-0.009-0.071-0.124-0.267-0.258-0.427-0.087-0.105-0.162-0.225-0.218-0.355l-0.004-0.010c0-0.133 0.622-1.298 0.818-1.547 0.178-0.213 0.32-0.32 0.32-0.231zM15.52 24.391c0.329 0.222 1.582 1.316 1.662 1.449 0.036 0.062-1.253 2.080-1.511 2.373-0.027 0.027-0.169-0.036-0.302-0.142-0.311-0.233-0.691-0.496-1.079-0.748l-0.086-0.052-0.907-0.604 0.533-0.916c0.978-1.609 0.951-1.582 1.156-1.582 0.107 0 0.347 0.098 0.533 0.222zM18.053 24.64c-0.24 0.284-0.436 0.462-0.516 0.462-0.178 0-0.444-0.151-0.924-0.498l-0.4-0.293 0.8-0.044c0.418-0.018 0.836-0.044 0.907-0.062 0.533-0.089 0.533-0.080 0.133 0.436zM12.987 27.858c0.622 0.24 1.662 0.8 1.956 1.067 0.222 0.178 0.222 0.178 0.133 0.4-0.053 0.116-0.231 0.444-0.409 0.711s-0.382 0.604-0.444 0.747c-0.222 0.418-0.293 0.444-0.729 0.329-0.48-0.142-0.729-0.382-0.862-0.818-0.178-0.613-0.471-2.329-0.444-2.596 0.018-0.107 0.302-0.044 0.8 0.16z"></path>
</symbol>
<symbol id="icon-arrow-btn" viewBox="0 0 12 12">
<path d="M3.96959 1.22698C3.82899 1.36762 3.75 1.55835 3.75 1.75723C3.75 1.9561 3.82899 2.14683 3.96959 2.28748L7.68209 5.99998L3.96959 9.71247C3.83297 9.85393 3.75738 10.0434 3.75908 10.24C3.76079 10.4367 3.83967 10.6248 3.97873 10.7638C4.11778 10.9029 4.30589 10.9818 4.50254 10.9835C4.69919 10.9852 4.88864 10.9096 5.03009 10.773L9.27284 6.53022C9.41344 6.38958 9.49243 6.19885 9.49243 5.99998C9.49243 5.8011 9.41344 5.61037 9.27284 5.46973L5.03009 1.22698C4.88944 1.08637 4.69871 1.00739 4.49984 1.00739C4.30097 1.00739 4.11024 1.08637 3.96959 1.22698Z"></path>
</symbol>




<!-- ABOUT AND CONTACTS SECTION -->
<symbol id="icon-vector" viewBox="0 0 22 32">
<path d="M3.104 0.736c-0.434 0.434-0.702 1.034-0.702 1.696s0.268 1.262 0.702 1.696l11.872 11.872-11.872 11.872c-0.399 0.427-0.644 1.003-0.644 1.636 0 1.325 1.075 2.4 2.4 2.4 0.633 0 1.209-0.245 1.638-0.645l-0.001 0.001 13.568-13.568c0.434-0.434 0.702-1.034 0.702-1.696s-0.268-1.262-0.702-1.696l-13.568-13.568c-0.434-0.434-1.034-0.702-1.696-0.702s-1.262 0.268-1.696 0.702l0-0z"></path>
</symbol>





<!-- CONTACTS SECTION -->
<symbol id="icon-facebook" viewBox="0 0 32 32">
<!-- <path d="M16 32c8.837 0 16-7.163 16-16s-7.163-16-16-16v0c-8.837 0-16 7.163-16 16s7.163 16 16 16v0z"></path> -->
<path d="M20.442 15.981h-2.607v9.619h-3.953v-9.619h-1.882v-3.388h1.882v-2.184c0-1.562 0.734-4.009 3.991-4.009l2.927 0.009v3.285h-2.127c-0.348 0-0.838 0.179-0.838 0.922v1.986h2.955l-0.348 3.379z"></path>
</symbol>
<symbol id="icon-github" viewBox="0 0 32 32">
<!-- <path d="M32 16c0 8.837-7.163 16-16 16s-16-7.163-16-16c0-8.837 7.163-16 16-16s16 7.163 16 16z"></path> -->
<path d="M16 6.588c-5.176 0-9.412 4.235-9.412 9.412 0 4.414 3.096 8.414 7.209 9.412v-3.106c-0.156 0.037-0.335 0.059-0.519 0.059-0.865 0-1.619-0.474-2.016-1.177l-0.006-0.012c-0.216-0.376-0.593-0.753-0.988-0.734l-0.094-1.092c0.847-0.075 1.591 0.518 2.024 1.252 0.198 0.329 0.424 0.527 0.715 0.612 0.282 0.075 0.574 0.038 0.922-0.085 0.094-0.696 0.405-0.96 0.649-1.318v-0.009c-2.447-0.367-3.426-1.666-3.821-2.692-0.161-0.435-0.254-0.937-0.254-1.461 0-1.017 0.351-1.951 0.939-2.689l-0.007 0.009c0.019-0.019 0.047-0.075 0.038-0.113-0.424-1.261 0.094-2.306 0.104-2.409 0.48 0.141 0.565-0.151 2.089 0.781l0.264 0.16c0.113 0.066 0.075 0.028 0.188 0.019 0.64-0.169 1.318-0.264 1.976-0.282 0.668 0.019 1.336 0.113 2.005 0.282l0.085 0.019 0.075-0.038c1.911-1.158 1.845-0.781 2.353-0.941 0.019 0.104 0.518 1.167 0.104 2.409-0.056 0.169 1.656 1.732 0.715 4.254-0.395 1.026-1.365 2.325-3.821 2.692 0.311 0.48 0.696 0.734 0.687 1.722v3.887c4.113-0.998 7.209-4.998 7.209-9.412 0-5.176-4.235-9.412-9.412-9.412z"></path>
</symbol>
<symbol id="icon-telegram" viewBox="0 0 32 32">
<!-- <path d="M32 16c0 8.837-7.163 16-16 16s-16-7.163-16-16c0-8.837 7.163-16 16-16s16 7.163 16 16z"></path> -->
<path d="M12.866 18.372l-0.311 4.169c0.452 0 0.649-0.179 0.885-0.395l2.127-1.901 4.424 3.012c0.8 0.424 1.374 0.207 1.591-0.687l2.899-12.678c0.254-1.12-0.433-1.553-1.224-1.28l-17.035 6.089c-1.158 0.414-1.139 1.026-0.188 1.299l4.348 1.261 10.118-5.901c0.471-0.301 0.904-0.132 0.555 0.16l-8.188 6.852z"></path>
</symbol>
</defs>
</svg>
